<svg width="250" height="250" viewBox="0 0 250 250" fill="none" xmlns="http://www.w3.org/2000/svg">
<path d="M194.085 53.26L232.975 53.205C232.975 53.205 231.035 50.705 228.905 50.375C228.905 50.375 224.74 38.04 217.8 37.965C211.345 37.89 208.77 45.57 208.77 45.57C208.77 45.57 205.77 42.13 202.92 43.71C200.07 45.29 198.455 49.795 198.455 49.795C198.455 49.795 195.245 51.53 194.085 53.26Z" fill="#EBEBEB"/>
<path d="M111.34 60.25L62.16 60.325C62.16 60.325 62.16 57.18 68.93 56.555C68.93 56.555 75.095 42.815 84.54 44.645C90.425 45.785 93.44 53.855 93.44 53.855C93.44 53.855 97.875 47.495 101.44 48.72C105.005 49.945 107.115 56.72 107.115 56.72C107.115 56.72 110.78 58.5 111.34 60.25Z" fill="#EBEBEB"/>
<path d="M185.285 96.21L151.845 96.26C151.845 96.26 155 93.32 156.4 93.32C157.8 93.32 161.9 83.45 167.115 83.86C172.33 84.27 175.115 91.61 175.115 91.61C175.115 91.61 181.5 89.61 185.285 96.21Z" fill="#EBEBEB"/>
<path d="M45.625 87L17.025 87.045C17.025 87.045 18.445 85.19 20.025 84.96C20.025 84.96 23.055 75.88 28.16 75.805C32.905 75.74 34.815 81.375 34.815 81.375C34.815 81.375 37.01 78.845 39.115 79.995C41.22 81.145 42.41 84.46 42.41 84.46C42.41 84.46 44.765 85.71 45.625 87Z" fill="#EBEBEB"/>
<path d="M14.715 211.98L42.285 211.86L69.86 211.815L125 211.73L180.145 211.815L207.715 211.86L235.285 211.98L207.715 212.1L180.145 212.145L125 212.23L69.86 212.145L42.285 212.1L14.715 211.98Z" fill="#263238"/>
<path d="M140.235 231.915C190.764 231.915 231.725 227.937 231.725 223.03C231.725 218.123 190.764 214.145 140.235 214.145C89.7065 214.145 48.745 218.123 48.745 223.03C48.745 227.937 89.7065 231.915 140.235 231.915Z" fill="#EBEBEB"/>
<g opacity="0.3">
<path d="M70.265 40.465C70.265 46.0345 68.0525 51.376 64.1143 55.3142C60.176 59.2525 54.8346 61.465 49.265 61.465C37.66 61.465 27.73 52.06 27.73 40.465C27.73 28.87 37.65 18.93 49.255 18.93C60.86 18.93 70.265 28.86 70.265 40.465Z" fill="#AEC6CF"/>
</g>
<g opacity="0.3">
<path d="M48.775 57.625C44.2124 57.6237 39.837 55.8106 36.6107 52.5843C33.3844 49.358 31.5713 44.9826 31.57 40.42C31.57 30.92 39.275 22.78 48.775 22.78C58.275 22.78 66.415 30.915 66.415 40.42C66.415 49.925 58.28 57.625 48.775 57.625Z" fill="#AEC6CF"/>
</g>
<path d="M49.215 55.1C57.3198 55.1 63.89 48.5298 63.89 40.425C63.89 32.3202 57.3198 25.75 49.215 25.75C41.1102 25.75 34.54 32.3202 34.54 40.425C34.54 48.5298 41.1102 55.1 49.215 55.1Z" fill="#AEC6CF"/>
<path d="M91.675 196.44L89.46 221.545H148.96C148.96 221.545 142.315 171.355 142.315 170.915C142.315 170.475 154.42 155.12 151.765 122.495C148.445 81.89 120 67.88 91.38 67.88C62.76 67.88 42.67 94.335 39.88 113.21L29.38 155.71L43.105 157.63C43.105 157.63 43.695 186.41 51.105 193.79C58.515 201.17 91.675 196.44 91.675 196.44Z" fill="white"/>
<path opacity="0.41" d="M91.675 196.44L89.46 221.545H148.96C148.96 221.545 142.315 171.355 142.315 170.915C142.315 170.475 154.42 155.12 151.765 122.495C148.445 81.89 120 67.88 91.38 67.88C62.76 67.88 42.67 94.335 39.88 113.21L29.38 155.71L43.105 157.63C43.105 157.63 43.695 186.41 51.105 193.79C58.515 201.17 91.675 196.44 91.675 196.44Z" fill="#AEC6CF"/>
<path d="M143.375 123.635C142.275 128.675 135.595 131.135 135.595 131.135C135.185 132.045 137.46 149.82 138.095 150.835C138.73 151.85 134.97 154.47 134.475 153.885C133.98 153.3 129.585 141.735 120.44 139.655C119.055 141.245 117.35 142.524 115.436 143.409C113.522 144.294 111.443 144.765 109.335 144.79C101.985 144.97 96.635 139.71 96.635 139.71C96.635 139.71 91.45 147.36 80.58 145.385C69.71 143.41 67.405 134.835 67.405 134.835C67.405 134.835 53.36 139.08 47.965 127.595C43.835 118.81 48.365 112.41 50.705 109.905C51.0814 109.49 51.4857 109.1 51.915 108.74C51.915 108.74 50.755 98.085 57.34 92.5C63.925 86.915 72.62 87.585 72.62 87.585C72.62 87.585 76.12 76.8 86.185 74.7C96.25 72.6 102.345 78.435 102.345 78.435C105.335 77.112 108.565 76.4203 111.835 76.4031C115.104 76.3859 118.342 77.0436 121.345 78.335C131.795 82.69 131.475 93.07 131.475 93.07C131.475 93.07 139.075 95.57 141.595 101.775C144.115 107.98 139.995 114.205 139.995 114.205C139.995 114.205 144.47 118.595 143.375 123.635Z" fill="#AEC6CF"/>
<g style="mix-blend-mode:multiply" opacity="0.1">
<g style="mix-blend-mode:multiply">
<path d="M120.44 139.65C119.055 141.24 117.35 142.519 115.436 143.404C113.522 144.289 111.443 144.76 109.335 144.785C101.985 144.965 96.635 139.705 96.635 139.705C96.635 139.705 91.45 147.355 80.58 145.38C69.71 143.405 67.405 134.83 67.405 134.83C67.405 134.83 53.36 139.075 47.965 127.59C43.835 118.805 48.365 112.405 50.705 109.9L51.915 108.735C51.85 108.915 48.005 119.625 54.825 126.33C61.645 133.035 71.5 128.67 71.5 128.67C71.5 128.67 72.76 139.27 81.21 141.695C90.595 144.39 96.68 137.255 96.68 137.255C96.68 137.255 107.655 149.21 120.44 139.65Z" fill="#222221"/>
</g>
</g>
<g style="mix-blend-mode:multiply" opacity="0.1">
<path d="M134.5 153.88C134 153.3 129.61 141.73 120.465 139.65C120.465 139.65 127.965 135.245 131.42 138.33C134.875 141.415 134.5 153.88 134.5 153.88Z" fill="#222221"/>
</g>
<path d="M124.5 70.27C125.035 69.97 125.91 69.54 126.54 69.66C126.646 69.69 126.743 69.7434 126.825 69.8164C126.908 69.8893 126.972 69.9799 127.015 70.0813C127.057 70.1827 127.076 70.2924 127.07 70.4021C127.064 70.5118 127.033 70.6188 126.98 70.715C126.627 71.3454 126.092 71.8543 125.445 72.175C125.111 72.3386 124.75 72.4418 124.38 72.48C123.98 72.6326 123.553 72.7007 123.125 72.68H123.045C123.033 72.6846 123.019 72.6866 123.006 72.6858C122.993 72.6849 122.98 72.6814 122.968 72.6752C122.956 72.6691 122.946 72.6606 122.938 72.6502C122.929 72.6398 122.923 72.6278 122.92 72.615L122.85 72.59C121.825 72.145 124.11 70.5 124.5 70.27Z" fill="#AEC6CF"/>
<g style="mix-blend-mode:multiply" opacity="0.3">
<path d="M124.5 70.27C125.035 69.97 125.91 69.54 126.54 69.66C126.646 69.69 126.743 69.7434 126.825 69.8164C126.908 69.8893 126.972 69.9799 127.015 70.0813C127.057 70.1827 127.076 70.2924 127.07 70.4021C127.064 70.5118 127.033 70.6188 126.98 70.715C126.627 71.3454 126.092 71.8543 125.445 72.175C125.111 72.3386 124.75 72.4418 124.38 72.48C123.98 72.6326 123.553 72.7007 123.125 72.68H123.045C123.033 72.6846 123.019 72.6866 123.006 72.6858C122.993 72.6849 122.98 72.6814 122.968 72.6752C122.956 72.6691 122.946 72.6606 122.938 72.6502C122.929 72.6398 122.923 72.6278 122.92 72.615L122.85 72.59C121.825 72.145 124.11 70.5 124.5 70.27Z" fill="#222221"/>
</g>
<path d="M113.545 72.35C113.295 73.02 112.89 74.175 113.375 74.85C113.403 74.8919 113.442 74.9247 113.488 74.9443C113.535 74.9638 113.586 74.9693 113.635 74.96C113.925 74.8709 114.173 74.6811 114.335 74.425C114.951 73.8009 115.424 73.0502 115.72 72.225C115.93 71.65 115.625 70.79 114.89 70.795C114.155 70.8 113.75 71.785 113.545 72.35Z" fill="#AEC6CF"/>
<g style="mix-blend-mode:multiply" opacity="0.3">
<path d="M113.545 72.35C113.295 73.02 112.89 74.175 113.375 74.85C113.403 74.8919 113.442 74.9247 113.488 74.9443C113.535 74.9638 113.586 74.9693 113.635 74.96C113.925 74.8709 114.173 74.6811 114.335 74.425C114.951 73.8009 115.424 73.0502 115.72 72.225C115.93 71.65 115.625 70.79 114.89 70.795C114.155 70.8 113.75 71.785 113.545 72.35Z" fill="#222221"/>
</g>
<path d="M108 77.905C108.18 78.465 108.785 79.145 109.16 78.305C109.171 78.2824 109.177 78.2576 109.177 78.2325C109.177 78.2074 109.171 78.1826 109.16 78.16C109.66 77.16 110.16 76.085 109.66 74.965C109.345 74.235 108.575 74.205 108.06 74.78C107.325 75.595 107.705 77 108 77.905Z" fill="#AEC6CF"/>
<g style="mix-blend-mode:multiply" opacity="0.3">
<path d="M108 77.905C108.18 78.465 108.785 79.145 109.16 78.305C109.171 78.2824 109.177 78.2576 109.177 78.2325C109.177 78.2074 109.171 78.1826 109.16 78.16C109.66 77.16 110.16 76.085 109.66 74.965C109.345 74.235 108.575 74.205 108.06 74.78C107.325 75.595 107.705 77 108 77.905Z" fill="#222221"/>
</g>
<path d="M123.405 72.685C122.54 73.3 120.81 73.685 120.245 73.765C120.03 73.91 116.505 75.655 115.215 76.73C114.356 77.4494 113.564 78.2461 112.85 79.11C114.329 78.1645 115.905 77.3784 117.55 76.765C119.05 76.205 120.8 75.975 122.32 76.635C122.32 76.685 120.35 77.555 119.505 77.995C118.66 78.435 118.005 78.93 117.2 79.27C115.684 79.8438 114.041 79.9976 112.445 79.715C112.425 79.7108 112.406 79.7022 112.39 79.69C111.363 80.9923 110.545 82.4463 109.965 84C108.535 88 108.615 92.065 109.18 95.855C109.135 95.785 109.08 95.725 109.025 95.655C108.87 95.4485 108.703 95.2515 108.525 95.065C108.357 93.887 108.264 92.6997 108.245 91.51C108.247 91.4917 108.247 91.4733 108.245 91.455C106.899 90.7526 105.817 89.6335 105.16 88.265C104.521 86.5952 104.02 84.8762 103.66 83.125C105.297 84.0245 106.583 85.4496 107.31 87.17C107.73 88.1391 108.064 89.1429 108.31 90.17C108.335 89.605 108.37 89.045 108.435 88.485C108.244 86.4906 108.214 84.4842 108.345 82.485C108.405 81.6094 108.515 80.7379 108.675 79.875C108.461 79.335 108.307 78.7734 108.215 78.2C108.201 78.0004 108.239 77.8008 108.325 77.62C108.402 77.4207 108.551 77.2581 108.744 77.1653C108.936 77.0724 109.156 77.0562 109.36 77.12C109.397 77.1297 109.429 77.1511 109.453 77.1808C109.476 77.2106 109.489 77.2471 109.49 77.285C109.49 77.39 109.49 77.5 109.49 77.61C109.383 78.367 109.215 79.1144 108.99 79.845C108.773 80.9854 108.641 82.1402 108.595 83.3C108.545 84.525 108.595 85.74 108.655 86.96C108.839 86.0349 109.095 85.1255 109.42 84.24C109.697 82.4837 110.229 80.7774 111 79.175C111.495 78.1965 112.048 77.2482 112.655 76.335C112.751 75.6429 112.919 74.9625 113.155 74.305C113.335 73.865 113.59 73.54 113.935 73.56C114.48 73.56 114.495 73.96 114.31 74.415C114.032 74.9785 113.693 75.51 113.3 76C112.222 77.5285 111.316 79.1718 110.6 80.9C110.404 81.4203 110.237 81.9511 110.1 82.49C111.348 79.9734 113.179 77.7912 115.44 76.125C116.963 75.0906 118.572 74.189 120.25 73.43C120.995 72.88 121.69 72.295 122.425 71.695C122.648 71.452 122.936 71.2784 123.255 71.195C123.34 71.1895 123.425 71.206 123.502 71.2427C123.579 71.2795 123.646 71.3354 123.695 71.405C124.095 71.935 123.88 72.345 123.405 72.685Z" fill="#455A64"/>
<g style="mix-blend-mode:multiply" opacity="0.1">
<path d="M97 93.47C98.3161 92.8864 99.7274 92.5476 101.165 92.47C101.894 92.4176 102.625 92.4377 103.35 92.53C104.082 92.6279 104.801 92.8039 105.495 93.055C106.189 93.3318 106.844 93.6964 107.445 94.14C108.03 94.5861 108.56 95.0996 109.025 95.67C109.949 96.7834 110.63 98.0778 111.025 99.47C110.325 98.2612 109.476 97.1443 108.5 96.145C107.562 95.1726 106.429 94.4093 105.175 93.905C103.891 93.4422 102.54 93.1955 101.175 93.175C99.7771 93.1399 98.3791 93.2387 97 93.47Z" fill="#222221"/>
<path d="M119.63 97.68C118.879 97.2465 118.085 96.8929 117.26 96.625C116.466 96.3686 115.643 96.214 114.81 96.165C114.602 96.1524 114.393 96.1524 114.185 96.165C113.979 96.15 113.771 96.15 113.565 96.165L112.935 96.21C112.73 96.25 112.52 96.285 112.31 96.315L111.995 96.36L111.685 96.44L111.055 96.585C110.63 96.69 110.225 96.84 109.775 96.94C110.128 96.6591 110.498 96.4018 110.885 96.17C111.285 95.9528 111.703 95.7705 112.135 95.625C112.355 95.555 112.575 95.485 112.795 95.425L113.475 95.31C113.704 95.2675 113.937 95.2474 114.17 95.25C114.401 95.235 114.634 95.235 114.865 95.25C115.793 95.3017 116.701 95.5452 117.53 95.965C118.358 96.3589 119.079 96.9473 119.63 97.68Z" fill="#222221"/>
</g>
<path d="M139.21 95.695C137.761 96.526 136.257 97.2593 134.71 97.89C133.975 98.2459 133.213 98.5418 132.43 98.775C132 98.8924 131.545 98.875 131.125 98.725C130.887 98.6799 130.674 98.5502 130.525 98.36C130.488 98.3198 130.466 98.269 130.46 98.215C129.805 97.625 129.61 96.675 129.41 95.795C128.998 94.0403 128.771 92.2471 128.735 90.445C128.735 89.79 128.6 88.945 128.9 88.315C129.085 87.94 129.315 87.905 129.605 87.695C130.295 87.195 130.315 86.55 130.815 85.93C130.929 85.7526 131.09 85.6095 131.279 85.5162C131.468 85.4228 131.68 85.3827 131.89 85.4C132.94 85.61 132.83 87.65 132.89 88.4C133.02 89.9439 133.02 91.4961 132.89 93.04C132.803 94.4347 132.591 95.8186 132.255 97.175C133.661 95.0509 135.365 93.1398 137.315 91.5C138.015 90.905 139.135 89.93 140.145 90.285C140.555 90.43 140.51 90.74 140.775 90.96C141.335 91.425 141.945 90.96 142.53 91.24C144.72 92.34 139.965 95.265 139.21 95.695Z" fill="#AEC6CF"/>
<g style="mix-blend-mode:multiply" opacity="0.3">
<path d="M139.21 95.695C137.761 96.526 136.257 97.2593 134.71 97.89C133.975 98.2459 133.213 98.5418 132.43 98.775C132 98.8924 131.545 98.875 131.125 98.725C130.887 98.6799 130.674 98.5502 130.525 98.36C130.488 98.3198 130.466 98.269 130.46 98.215C129.805 97.625 129.61 96.675 129.41 95.795C128.998 94.0403 128.771 92.2471 128.735 90.445C128.735 89.79 128.6 88.945 128.9 88.315C129.085 87.94 129.315 87.905 129.605 87.695C130.295 87.195 130.315 86.55 130.815 85.93C130.929 85.7526 131.09 85.6095 131.279 85.5162C131.468 85.4228 131.68 85.3827 131.89 85.4C132.94 85.61 132.83 87.65 132.89 88.4C133.02 89.9439 133.02 91.4961 132.89 93.04C132.803 94.4347 132.591 95.8186 132.255 97.175C133.661 95.0509 135.365 93.1398 137.315 91.5C138.015 90.905 139.135 89.93 140.145 90.285C140.555 90.43 140.51 90.74 140.775 90.96C141.335 91.425 141.945 90.96 142.53 91.24C144.72 92.34 139.965 95.265 139.21 95.695Z" fill="#222221"/>
</g>
<path d="M137.66 87.85C136.09 91.02 134.33 94.085 132.815 97.28C132.775 97.36 132.64 97.28 132.675 97.22C133.855 94.295 135.445 91.565 136.885 88.765C137.642 87.3918 138.224 85.9286 138.615 84.41C138.855 83.375 138.915 82.41 139.615 81.615C139.643 81.5793 139.681 81.5517 139.723 81.5349C139.765 81.5182 139.811 81.5128 139.856 81.5194C139.901 81.526 139.944 81.5443 139.98 81.5725C140.015 81.6006 140.043 81.6377 140.06 81.68C140.48 82.68 139.285 84.135 138.655 85.09C138.418 86.0413 138.084 86.9661 137.66 87.85Z" fill="#263238"/>
<path d="M131.445 87.415C130.31 90.33 130.055 93.495 129.685 96.565C129.685 96.5796 129.679 96.5936 129.669 96.6039C129.659 96.6142 129.645 96.62 129.63 96.62C129.615 96.62 129.601 96.6142 129.591 96.6039C129.581 96.5936 129.575 96.5796 129.575 96.565C129.605 92.475 130.575 87.935 132.735 84.42C132.925 84.105 134.185 82.175 134.695 82.82C134.965 83.165 134.365 83.72 134.17 83.915C133.545 84.575 132.77 85.03 132.2 85.755C131.895 86.325 131.65 86.895 131.445 87.415Z" fill="#263238"/>
<path d="M142.905 88.425C142.618 89.8164 142.065 91.1391 141.275 92.32C139.675 94.87 137.385 96.905 134.96 98.65C134.905 98.695 134.835 98.595 134.885 98.555C137.2 96.695 139.485 94.745 141.08 92.205C141.497 91.5445 141.858 90.8504 142.16 90.13L142.23 89.96C142.226 89.9539 142.225 89.947 142.225 89.94C142.225 89.933 142.226 89.9261 142.23 89.92C142.341 89.0676 142.354 88.2054 142.27 87.35C142.194 86.9867 142.253 86.6082 142.435 86.285C142.443 86.2715 142.455 86.2609 142.469 86.2547C142.484 86.2484 142.5 86.2468 142.515 86.25C143.225 86.435 143 87.915 142.905 88.425Z" fill="#263238"/>
<path d="M141.46 98.16C138.38 99.87 134.695 100.435 131.46 101.76C130.72 102.06 129.99 102.395 129.265 102.76C129.043 102.881 128.814 102.989 128.58 103.085C128.434 103.142 128.275 103.157 128.12 103.13C128.055 103.121 127.992 103.099 127.935 103.065C127.831 103.006 127.742 102.922 127.678 102.821C127.613 102.72 127.575 102.605 127.565 102.485C127.507 101.985 127.529 101.478 127.63 100.985C127.585 100.455 127.495 99.925 127.44 99.455C127.37 98.765 127.28 98.085 127.175 97.4C126.94 95.95 126.575 94.53 126.215 93.105C125.862 91.9074 125.694 90.6632 125.715 89.415C125.715 88.75 125.83 87.51 126.42 87.075C127.01 86.64 127.33 87.04 127.54 87.535C127.75 88.03 127.735 88.535 127.89 88.995C128.13 89.71 128.555 89.78 129.025 90.225C129.305 90.541 129.515 90.9132 129.64 91.3168C129.765 91.7203 129.803 92.1458 129.75 92.565C129.71 93.24 129.635 93.92 129.545 94.59C129.745 93.985 129.97 93.385 130.2 92.8C130.615 91.745 131.025 90.43 131.815 89.585C132.065 89.3014 132.379 89.0805 132.73 88.94C133.489 88.732 134.179 88.3266 134.73 87.765C135.27 87.165 135.97 86.08 136.925 86.225C137.88 86.37 137.78 87.33 137.84 88.045C137.955 89.375 139.04 90.095 138.795 91.545C138.595 92.725 137.77 93.74 137.04 94.645C136.472 95.3516 135.857 96.0197 135.2 96.645C136.082 96.1111 137.032 95.699 138.025 95.42C138.451 95.2614 138.912 95.2183 139.36 95.295C140.005 95.465 140.04 95.875 140.86 95.795C141.47 95.725 142.805 95.295 143.135 96.14C143.465 96.985 142.065 97.82 141.46 98.16Z" fill="#AEC6CF"/>
<g style="mix-blend-mode:multiply" opacity="0.1">
<path d="M141.46 98.16C138.38 99.87 134.695 100.435 131.46 101.76C130.72 102.06 129.99 102.395 129.265 102.76C129.043 102.881 128.814 102.989 128.58 103.085C128.434 103.142 128.275 103.157 128.12 103.13C128.055 103.121 127.992 103.099 127.935 103.065C127.831 103.006 127.742 102.922 127.678 102.821C127.613 102.72 127.575 102.605 127.565 102.485C127.507 101.985 127.529 101.478 127.63 100.985C127.585 100.455 127.495 99.925 127.44 99.455C127.37 98.765 127.28 98.085 127.175 97.4C126.94 95.95 126.575 94.53 126.215 93.105C125.862 91.9074 125.694 90.6632 125.715 89.415C125.715 88.75 125.83 87.51 126.42 87.075C127.01 86.64 127.33 87.04 127.54 87.535C127.75 88.03 127.735 88.535 127.89 88.995C128.13 89.71 128.555 89.78 129.025 90.225C129.305 90.541 129.515 90.9132 129.64 91.3168C129.765 91.7203 129.803 92.1458 129.75 92.565C129.71 93.24 129.635 93.92 129.545 94.59C129.745 93.985 129.97 93.385 130.2 92.8C130.615 91.745 131.025 90.43 131.815 89.585C132.065 89.3014 132.379 89.0805 132.73 88.94C133.489 88.732 134.179 88.3266 134.73 87.765C135.27 87.165 135.97 86.08 136.925 86.225C137.88 86.37 137.78 87.33 137.84 88.045C137.955 89.375 139.04 90.095 138.795 91.545C138.595 92.725 137.77 93.74 137.04 94.645C136.472 95.3516 135.857 96.0197 135.2 96.645C136.082 96.1111 137.032 95.699 138.025 95.42C138.451 95.2614 138.912 95.2183 139.36 95.295C140.005 95.465 140.04 95.875 140.86 95.795C141.47 95.725 142.805 95.295 143.135 96.14C143.465 96.985 142.065 97.82 141.46 98.16Z" fill="#222221"/>
</g>
<path d="M127.28 93.045V93.08C127.31 93.075 127.3 93.04 127.28 93.045Z" fill="#F1D1C5"/>
<path d="M138.93 98.045C135.89 99.985 130.61 99.61 128.57 102.91V103.07C128.424 103.127 128.265 103.142 128.11 103.115C127.65 101.965 127.87 100.68 127.915 99.45C128.022 97.5912 127.893 95.7263 127.53 93.9C127.53 93.85 127.59 93.835 127.61 93.9C128.026 95.3078 128.244 96.767 128.255 98.235C128.29 99.735 127.885 101.53 128.32 102.99L128.35 102.84C128.35 101.155 129.03 99.46 129.72 97.96C130.61 96.025 131.72 94.22 132.795 92.375C132.835 92.3 132.94 92.375 132.9 92.45C131.98 94.265 131.025 96.075 130.165 97.92C129.608 99.0419 129.158 100.214 128.82 101.42C130.5 97.5 135.075 95.255 136.5 91.185C136.507 91.1658 136.521 91.15 136.539 91.1411C136.557 91.1322 136.578 91.1309 136.598 91.1375C136.617 91.1441 136.633 91.1581 136.641 91.1764C136.65 91.1947 136.652 91.2158 136.645 91.235C135.205 95.56 130.575 97.96 128.84 102.085C129.118 101.749 129.441 101.453 129.8 101.205C130.539 100.474 131.381 99.8558 132.3 99.37C133.8 98.585 135.44 98.2 136.89 97.305C136.945 97.275 137 97.36 136.955 97.4C135.84 98.355 134.38 98.715 133.065 99.31C132.275 99.664 131.525 100.103 130.83 100.62C131.255 100.42 131.691 100.243 132.135 100.09C134.38 99.295 136.705 98.925 138.875 97.91C138.892 97.9075 138.909 97.9107 138.923 97.919C138.938 97.9273 138.949 97.9403 138.956 97.9559C138.962 97.9714 138.963 97.9887 138.958 98.0049C138.954 98.021 138.944 98.0352 138.93 98.045Z" fill="white"/>
<path d="M127.07 90.695C126.983 91.1549 127.012 91.6293 127.155 92.075C127.158 92.0815 127.162 92.0871 127.168 92.091C127.174 92.0949 127.181 92.097 127.188 92.097C127.195 92.097 127.201 92.0949 127.207 92.091C127.213 92.0871 127.217 92.0815 127.22 92.075C127.17 91.6281 127.17 91.1769 127.22 90.73C127.2 90.65 127.09 90.62 127.07 90.695Z" fill="white"/>
<path d="M136.755 89.75C136.7 90 136.705 90.25 136.66 90.52C136.66 90.605 136.765 90.615 136.795 90.55C136.913 90.3046 136.952 90.0284 136.905 89.76C136.885 89.695 136.77 89.67 136.755 89.75Z" fill="white"/>
<path d="M140.115 97.1C139.985 97.1677 139.861 97.2463 139.745 97.335C139.738 97.343 139.733 97.3529 139.73 97.3635C139.728 97.3742 139.729 97.3852 139.732 97.3955C139.736 97.4058 139.742 97.4149 139.751 97.4218C139.759 97.4288 139.769 97.4333 139.78 97.435C139.943 97.4234 140.096 97.3522 140.21 97.235C140.275 97.175 140.2 97.05 140.115 97.1Z" fill="white"/>
<path d="M127.045 101.095C127.15 102.265 127.42 103.52 126.84 104.675C126.79 104.775 126.885 104.865 126.96 104.79C127.535 104.17 131.325 102.685 131.155 102.045C131.05 101.655 130 102.14 129.855 101.6C129.86 101.28 129.926 100.965 130.05 100.67C130.13 100.36 130.2 100.04 130.25 99.725C130.3 99.41 130.29 99.06 130.035 98.95C129.78 98.84 129.41 99.2 129.21 99.45C129.01 99.7 128.89 99.885 128.735 100.105C128.58 100.325 128.325 100.8 128.105 100.405C127.885 100.01 127.85 99.64 127.555 99.38C126.885 98.79 127 100.745 127.045 101.095Z" fill="#455A64"/>
<path d="M125.66 116.555C125.515 116.22 125.35 115.885 125.16 115.555C125.011 115.284 124.844 115.024 124.66 114.775C124.66 114.56 124.695 114.34 124.715 114.125C124.825 112.915 124.98 111.71 125.19 110.515C125.245 110.18 125.31 109.845 125.375 109.515C125.525 108.74 125.695 107.97 125.875 107.2C126.13 106.068 126.53 104.974 127.065 103.945C127.254 103.597 127.468 103.263 127.705 102.945L127.91 102.685L128.135 102.415L128.325 102.205L128.355 102.175C128.37 102.158 128.392 102.147 128.415 102.146C128.438 102.144 128.46 102.152 128.477 102.168C128.495 102.183 128.505 102.204 128.507 102.227C128.508 102.25 128.5 102.273 128.485 102.29L128.305 102.52C128.264 102.575 128.225 102.631 128.19 102.69C128.125 102.78 128.06 102.88 127.995 102.975C127.93 103.07 127.945 103.06 127.925 103.105C127.644 103.571 127.409 104.063 127.225 104.575C126.54 106.415 126.365 108.495 126.125 110.385C126.005 111.322 125.908 112.257 125.835 113.19C125.827 113.268 125.827 113.347 125.835 113.425C125.76 114.45 125.695 115.5 125.66 116.555Z" fill="#455A64"/>
<path d="M125.4 110.675C125.4 110.675 125.54 106.62 124.77 104.565C124 102.51 121.55 99.86 121.55 99.86C121.119 101.842 121.25 103.906 121.931 105.817C122.611 107.728 123.813 109.411 125.4 110.675Z" fill="#455A64"/>
<path d="M125.76 113.43C125.76 113.43 127.235 109.645 128.76 108.065C130.285 106.485 133.57 105.005 133.57 105.005C133.185 106.999 132.249 108.844 130.869 110.334C129.489 111.823 127.719 112.895 125.76 113.43Z" fill="#455A64"/>
<g style="mix-blend-mode:multiply" opacity="0.1">
<path d="M111.64 110.295C113.304 109.9 115.029 109.829 116.72 110.085C118.44 110.331 120.093 110.921 121.58 111.82C122.324 112.282 123.01 112.831 123.625 113.455C124.228 114.087 124.749 114.792 125.175 115.555C126.019 117.056 126.484 118.739 126.53 120.46C126.139 118.848 125.476 117.314 124.57 115.925C123.675 114.573 122.491 113.436 121.105 112.595C120.76 112.38 120.405 112.19 120.045 111.995C119.685 111.8 119.315 111.645 118.93 111.495C118.17 111.193 117.387 110.948 116.59 110.765C114.965 110.407 113.303 110.249 111.64 110.295Z" fill="#222221"/>
<path d="M136 115.21C135.107 114.994 134.2 114.844 133.285 114.76C132.399 114.688 131.508 114.721 130.63 114.86C130.196 114.925 129.766 115.02 129.345 115.145C128.924 115.284 128.513 115.451 128.115 115.645C127.29 116.048 126.504 116.525 125.765 117.07C126.275 116.252 126.957 115.556 127.765 115.03C128.173 114.756 128.608 114.526 129.065 114.345C129.526 114.177 130.001 114.053 130.485 113.975C131.451 113.824 132.437 113.86 133.39 114.08C134.328 114.274 135.217 114.659 136 115.21Z" fill="#222221"/>
</g>
<path d="M53.5 88.135C55.41 89.695 57.845 90.32 60.155 91.015C60.805 91.21 61.44 91.415 62.075 91.64C62.5131 91.8388 62.997 91.9149 63.475 91.86C64.305 91.69 64.385 90.945 64.395 90.225C64.4125 89.9953 64.4125 89.7647 64.395 89.535V89.38C64.3981 89.3649 64.3974 89.3492 64.393 89.3344C64.3887 89.3196 64.3808 89.3061 64.37 89.295C64.37 89.015 64.325 88.74 64.305 88.48C64.185 86.98 64.05 85.48 63.92 84.01C63.8735 82.799 63.7213 81.5945 63.465 80.41C63.355 79.995 63.235 79.44 62.815 79.225C62.5691 79.1399 62.3187 79.0681 62.065 79.01C61.8485 78.9172 61.6554 78.7771 61.5 78.6C61.09 78.17 60.36 76.87 59.595 77.285C59.205 77.5 59.095 78 59.01 78.39C58.8012 78.8869 58.4933 79.3361 58.105 79.71C57.53 80.46 57.675 81.425 57.99 82.25C58.4402 83.3199 59.0249 84.328 59.73 85.25C60.425 86.22 61.185 87.14 61.89 88.105C62.282 88.6355 62.6459 89.1863 62.98 89.755C63.145 90.035 63.295 90.315 63.435 90.605C63.5455 90.802 63.6311 91.0119 63.69 91.23C62.84 90.1709 61.9214 89.1687 60.94 88.23C59.94 87.23 59.05 86.045 57.91 85.175C57.068 84.4936 56.0275 84.1041 54.945 84.065C54.3388 84.0964 53.7317 84.0236 53.15 83.85C52.6365 83.6349 52.1042 83.4675 51.56 83.35C50.355 83.18 50.955 84.6 51.215 85.175C51.7322 86.3283 52.5152 87.3427 53.5 88.135Z" fill="#AEC6CF"/>
<g style="mix-blend-mode:multiply" opacity="0.3">
<path d="M53.5 88.135C55.41 89.695 57.845 90.32 60.155 91.015C60.805 91.21 61.44 91.415 62.075 91.64C62.5131 91.8388 62.997 91.9149 63.475 91.86C64.305 91.69 64.385 90.945 64.395 90.225C64.4125 89.9953 64.4125 89.7647 64.395 89.535V89.38C64.3981 89.3649 64.3974 89.3492 64.393 89.3344C64.3887 89.3196 64.3808 89.3061 64.37 89.295C64.37 89.015 64.325 88.74 64.305 88.48C64.185 86.98 64.05 85.48 63.92 84.01C63.8735 82.799 63.7213 81.5945 63.465 80.41C63.355 79.995 63.235 79.44 62.815 79.225C62.5691 79.1399 62.3187 79.0681 62.065 79.01C61.8485 78.9172 61.6554 78.7771 61.5 78.6C61.09 78.17 60.36 76.87 59.595 77.285C59.205 77.5 59.095 78 59.01 78.39C58.8012 78.8869 58.4933 79.3361 58.105 79.71C57.53 80.46 57.675 81.425 57.99 82.25C58.4402 83.3199 59.0249 84.328 59.73 85.25C60.425 86.22 61.185 87.14 61.89 88.105C62.282 88.6355 62.6459 89.1863 62.98 89.755C63.145 90.035 63.295 90.315 63.435 90.605C63.5455 90.802 63.6311 91.0119 63.69 91.23C62.84 90.1709 61.9214 89.1687 60.94 88.23C59.94 87.23 59.05 86.045 57.91 85.175C57.068 84.4936 56.0275 84.1041 54.945 84.065C54.3388 84.0964 53.7317 84.0236 53.15 83.85C52.6365 83.6349 52.1042 83.4675 51.56 83.35C50.355 83.18 50.955 84.6 51.215 85.175C51.7322 86.3283 52.5152 87.3427 53.5 88.135Z" fill="#222221"/>
</g>
<path d="M63.055 90.04C63.2975 88.4023 63.2975 86.7377 63.055 85.1C62.5075 81.9479 61.3982 78.9199 59.78 76.16C59.4689 75.545 59.0715 74.9776 58.6 74.475C58.39 74.275 57.92 74.055 57.935 74.545C58.0293 75.0125 58.3019 75.425 58.695 75.695C59.1307 76.017 59.5373 76.3768 59.91 76.77C60.175 77.27 60.41 77.77 60.67 78.27C61.2817 79.5325 61.8014 80.8376 62.225 82.175C63.069 84.7072 63.3422 87.3948 63.025 90.045L63.055 90.04Z" fill="#263238"/>
<path d="M62.705 90.77C61.0662 90.5276 59.4723 90.044 57.975 89.335C55.115 87.9015 52.5371 85.9638 50.365 83.615C49.8627 83.1437 49.4345 82.5992 49.095 82C48.96 81.745 48.885 81.23 49.35 81.385C49.815 81.54 50.065 82.06 50.235 82.445C50.4135 82.9646 50.6395 83.4668 50.91 83.945C51.305 84.34 51.705 84.725 52.12 85.105C53.1521 86.055 54.2516 86.929 55.41 87.72C57.589 89.2599 60.0821 90.2981 62.71 90.76C62.71 90.76 62.73 90.775 62.705 90.77Z" fill="#263238"/>
<path d="M54.5 79.81C55.36 80.9567 56.25 82.0783 57.17 83.175C59.0053 85.3502 60.953 87.428 63.005 89.4C63.005 89.4 63.045 89.4 63.005 89.37C61.005 87.37 59.11 85.235 57.3 83.065C56.3933 81.9817 55.5167 80.8783 54.67 79.755C54.5 79.52 54.325 79.29 54.17 79.05C53.885 78.305 53.67 77.615 53.33 76.89C53.16 76.55 52.755 75.76 52.37 76.04C51.885 76.41 53.66 78.675 54.5 79.81Z" fill="#263238"/>
<path d="M50.66 88.03C51.203 88.8647 51.8884 89.5975 52.685 90.195C54.392 91.48 56.341 92.4069 58.415 92.92C60.3884 93.5101 62.4668 93.662 64.505 93.365H64.58C64.5871 93.3707 64.5959 93.3738 64.605 93.3738C64.6141 93.3738 64.6229 93.3707 64.63 93.365C64.6835 93.3574 64.7357 93.3423 64.785 93.32C64.785 93.32 64.98 93.285 64.935 93.265C65.0199 93.148 65.1117 93.0361 65.21 92.93C65.572 92.5252 65.8967 92.0884 66.18 91.625C66.4825 91.0157 66.6803 90.3599 66.765 89.685C66.99 88.14 66.765 86.565 66.955 85.015C67.1 83.665 67.61 82.375 67.565 81.015C67.565 80.715 67.515 80.23 67.095 80.31C66.56 80.415 66.485 81.155 66.135 81.465C66.11 81.545 66.045 81.57 65.95 81.54C65.83 81.6 65.755 81.565 65.72 81.43C65.671 81.3513 65.6308 81.2674 65.6 81.18C65.5221 80.9987 65.4537 80.8134 65.395 80.625C65.285 80.295 65.2 79.955 65.11 79.625C65.0174 79.0151 64.7884 78.4341 64.44 77.925C64.3874 77.8524 64.3162 77.7953 64.234 77.7596C64.1517 77.724 64.0614 77.7111 63.9724 77.7224C63.8835 77.7336 63.7992 77.7686 63.7284 77.8236C63.6576 77.8786 63.6029 77.9516 63.57 78.035C63.3761 78.588 63.3061 79.1769 63.365 79.76C63.365 80.165 63.28 80.76 62.73 80.635C62.505 80.59 62.3 80.455 62.075 80.41C61.8734 80.3758 61.6662 80.4136 61.4897 80.5169C61.3132 80.6202 61.1788 80.7824 61.11 80.975C60.875 81.545 61.075 82.27 61.195 82.85C61.3616 83.5956 61.5737 84.3303 61.83 85.05C62.33 86.42 63.43 89.01 64 90.345C64.31 91.08 60.83 83.495 59.5 81.965C59.1742 81.6547 58.7448 81.4766 58.295 81.465C58.005 81.465 57.735 81.58 57.445 81.575C57.1479 81.5488 56.859 81.4638 56.595 81.325C55.875 81.005 54.645 80.625 54.445 81.74C54.35 82.24 54.585 82.74 54.595 83.24C54.5287 83.7165 54.369 84.1753 54.125 84.59C53.71 85.655 54.705 86.59 55.4 87.3C56.2646 88.1777 57.2049 88.9775 58.21 89.69C58.83 90.14 61.21 91.69 61.855 92.09C61.03 91.67 58.475 90.09 57.67 89.62C57.14 89.315 56.62 88.995 56.11 88.665C55.6 88.335 55.195 88.005 54.71 87.74C54.3168 87.5453 53.8765 87.4655 53.44 87.51C52.8463 87.4555 52.2588 87.3467 51.685 87.185C51.375 87.135 50.8 86.94 50.575 87.255C50.385 87.455 50.5 87.805 50.66 88.03Z" fill="#AEC6CF"/>
<g style="mix-blend-mode:multiply" opacity="0.09">
<path d="M50.66 88.03C51.203 88.8647 51.8884 89.5975 52.685 90.195C54.392 91.48 56.341 92.4069 58.415 92.92C60.3884 93.5101 62.4668 93.662 64.505 93.365H64.58C64.5871 93.3707 64.5959 93.3738 64.605 93.3738C64.6141 93.3738 64.6229 93.3707 64.63 93.365C64.6835 93.3574 64.7357 93.3423 64.785 93.32C64.785 93.32 64.98 93.285 64.935 93.265C65.0199 93.148 65.1117 93.0361 65.21 92.93C65.572 92.5252 65.8967 92.0884 66.18 91.625C66.4825 91.0157 66.6803 90.3599 66.765 89.685C66.99 88.14 66.765 86.565 66.955 85.015C67.1 83.665 67.61 82.375 67.565 81.015C67.565 80.715 67.515 80.23 67.095 80.31C66.56 80.415 66.485 81.155 66.135 81.465C66.11 81.545 66.045 81.57 65.95 81.54C65.83 81.6 65.755 81.565 65.72 81.43C65.671 81.3513 65.6308 81.2674 65.6 81.18C65.5221 80.9987 65.4537 80.8134 65.395 80.625C65.285 80.295 65.2 79.955 65.11 79.625C65.0174 79.0151 64.7884 78.4341 64.44 77.925C64.3874 77.8524 64.3162 77.7953 64.234 77.7596C64.1517 77.724 64.0614 77.7111 63.9724 77.7224C63.8835 77.7336 63.7992 77.7686 63.7284 77.8236C63.6576 77.8786 63.6029 77.9516 63.57 78.035C63.3761 78.588 63.3061 79.1769 63.365 79.76C63.365 80.165 63.28 80.76 62.73 80.635C62.505 80.59 62.3 80.455 62.075 80.41C61.8734 80.3758 61.6662 80.4136 61.4897 80.5169C61.3132 80.6202 61.1788 80.7824 61.11 80.975C60.875 81.545 61.075 82.27 61.195 82.85C61.3616 83.5956 61.5737 84.3303 61.83 85.05C62.33 86.42 63.43 89.01 64 90.345C64.31 91.08 60.83 83.495 59.5 81.965C59.1742 81.6547 58.7448 81.4766 58.295 81.465C58.005 81.465 57.735 81.58 57.445 81.575C57.1479 81.5488 56.859 81.4638 56.595 81.325C55.875 81.005 54.645 80.625 54.445 81.74C54.35 82.24 54.585 82.74 54.595 83.24C54.5287 83.7165 54.369 84.1753 54.125 84.59C53.71 85.655 54.705 86.59 55.4 87.3C56.2646 88.1777 57.2049 88.9775 58.21 89.69C58.83 90.14 61.21 91.69 61.855 92.09C61.03 91.67 58.475 90.09 57.67 89.62C57.14 89.315 56.62 88.995 56.11 88.665C55.6 88.335 55.195 88.005 54.71 87.74C54.3168 87.5453 53.8765 87.4655 53.44 87.51C52.8463 87.4555 52.2588 87.3467 51.685 87.185C51.375 87.135 50.8 86.94 50.575 87.255C50.385 87.455 50.5 87.805 50.66 88.03Z" fill="#222221"/>
</g>
<path d="M54.565 90.465C57.5152 92.2684 60.8839 93.273 64.34 93.38C64.3461 93.3835 64.353 93.3854 64.36 93.3854C64.367 93.3854 64.3739 93.3835 64.38 93.38H64.505H64.58C64.5871 93.3857 64.5959 93.3888 64.605 93.3888C64.6141 93.3888 64.6229 93.3857 64.63 93.38C64.6835 93.3724 64.7357 93.3573 64.785 93.335C64.785 93.335 64.98 93.3 64.935 93.28C65.0199 93.163 65.1117 93.0511 65.21 92.945C65.8542 91.7591 66.1878 90.4295 66.18 89.08C66.135 88.215 65.945 87.355 65.865 86.485C65.7809 85.6009 65.7642 84.7116 65.815 83.825C65.745 84.6848 65.725 85.5479 65.755 86.41C65.79 87.235 65.93 88.05 65.99 88.87C66.105 90.405 65.525 91.685 64.99 93.04C65.2658 91.8306 65.3501 90.5855 65.24 89.35C65.049 87.859 64.7448 86.3848 64.33 84.94C64.33 84.9 64.265 84.91 64.275 84.94C64.55 86.4 64.935 87.86 65.09 89.335C65.2181 90.6032 65.1473 91.8837 64.88 93.13C63.68 91.675 62.72 90.05 61.675 88.49C60.6649 86.9752 59.5452 85.5363 58.325 84.185C58.325 84.185 58.27 84.185 58.29 84.22C59.534 85.6678 60.6719 87.2035 61.695 88.815C62.5848 90.3174 63.5877 91.7499 64.695 93.1C63.452 92.2729 62.3005 91.3158 61.26 90.245C60.19 89.07 59.16 87.855 58.14 86.635C59.14 87.925 60.14 89.24 61.255 90.455C62.3052 91.5528 63.4995 92.5031 64.805 93.28C61.5 93.16 58.455 91.36 55.675 89.615C57.845 91 60.07 92.43 62.525 93.05C61.3994 92.9254 60.2857 92.7097 59.195 92.405C57.5999 91.929 56.0699 91.2573 54.64 90.405L54.565 90.465Z" fill="white"/>
<path d="M64.21 81.26C64.21 81.215 64.285 81.215 64.28 81.26C64.235 82.1361 64.235 83.0139 64.28 83.89C64.2767 83.9 64.2704 83.9087 64.2618 83.9149C64.2533 83.9211 64.243 83.9244 64.2325 83.9244C64.222 83.9244 64.2117 83.9211 64.2032 83.9149C64.1947 83.9087 64.1883 83.9 64.185 83.89C64.0425 83.0184 64.0509 82.1287 64.21 81.26Z" fill="white"/>
<path d="M56.55 84.805C56.7825 84.9817 56.9984 85.1791 57.195 85.395C57.195 85.425 57.195 85.48 57.145 85.455C56.9153 85.2695 56.7028 85.0637 56.51 84.84C56.5 84.815 56.5 84.78 56.55 84.805Z" fill="white"/>
<path d="M54.62 89L54.97 89.24C55.02 89.27 54.97 89.345 54.93 89.31L54.595 89.05C54.565 89.04 54.59 89 54.62 89Z" fill="white"/>
<path d="M63.225 94C64.27 94.385 65.49 94.64 66.11 95.665C66.121 95.6831 66.1381 95.6967 66.1582 95.7035C66.1783 95.7102 66.2001 95.7097 66.2198 95.7019C66.2396 95.6941 66.2559 95.6796 66.266 95.661C66.2761 95.6424 66.2793 95.6208 66.275 95.6C66.105 94.8 67.135 90.6 66.49 90.51C66.1 90.45 65.88 91.64 65.335 91.555C65.105 91.52 64.835 91.145 64.67 90.99C64.459 90.7798 64.2352 90.5827 64 90.4C63.78 90.235 63.46 90.085 63.215 90.285C62.97 90.485 63.05 90.975 63.14 91.285C63.23 91.595 63.315 91.785 63.405 92C63.495 92.215 63.745 92.675 63.28 92.72C62.8789 92.6856 62.4748 92.7194 62.085 92.82C61.19 93.195 62.91 93.87 63.225 94Z" fill="#455A64"/>
<path d="M74.265 107.8H74.225L73.51 107.695C73.38 107.695 73.245 107.695 73.115 107.695C72.93 107.195 72.725 106.755 72.505 106.3C72.39 106.05 72.265 105.8 72.14 105.55C71.72 104.73 71.2667 103.937 70.78 103.17C69.21 100.67 67.55 98.28 66.17 95.715C65.7334 94.905 65.33 94.0717 64.96 93.215C64.93 93.155 64.91 93.095 64.885 93.04C64.785 92.795 64.68 92.54 64.585 92.29C64.585 92.23 64.655 92.19 64.685 92.25C64.76 92.435 64.84 92.615 64.93 92.8C64.93 92.85 64.975 92.9 64.995 92.945C64.995 92.945 65.035 93.035 65.06 93.08C65.416 93.821 65.815 94.5406 66.255 95.235C67.445 97.155 68.87 98.95 70.22 100.785C70.32 100.92 70.42 101.055 70.515 101.195C71.3928 102.368 72.1928 103.597 72.91 104.875C73.431 105.816 73.8838 106.794 74.265 107.8Z" fill="#455A64"/>
<path d="M72.925 106.21C72.925 106.21 69.925 103.46 67.875 102.71C65.825 101.96 62.21 102.085 62.21 102.085C63.4334 103.704 65.0853 104.948 66.9788 105.677C68.8723 106.406 70.932 106.59 72.925 106.21Z" fill="#455A64"/>
<path d="M70.325 101.41C70.325 101.41 69.625 97.41 70.105 95.275C70.585 93.14 72.635 90.165 72.635 90.165C73.3389 92.068 73.4956 94.1302 73.0873 96.1177C72.679 98.1052 71.7221 99.9386 70.325 101.41Z" fill="#455A64"/>
<path d="M73.045 76.13C73.685 75.975 74.11 77.32 74.225 77.735C74.4872 78.8391 74.3526 80.0001 73.845 81.015C73.825 81.0937 73.7911 81.1682 73.745 81.235C73.745 81.235 73.745 81.235 73.745 81.265L73.68 81.33C73.6507 81.3566 73.6149 81.3748 73.5762 81.3827C73.5375 81.3906 73.4973 81.388 73.46 81.375C72.635 81.015 72.675 79.835 72.685 79.105C72.665 78.655 72.29 76.315 73.045 76.13Z" fill="#AEC6CF"/>
<g style="mix-blend-mode:multiply" opacity="0.2">
<path d="M73.045 76.13C73.685 75.975 74.11 77.32 74.225 77.735C74.4872 78.8391 74.3526 80.0001 73.845 81.015C73.825 81.0937 73.7911 81.1682 73.745 81.235C73.745 81.235 73.745 81.235 73.745 81.265L73.68 81.33C73.6507 81.3566 73.6149 81.3748 73.5762 81.3827C73.5375 81.3906 73.4973 81.388 73.46 81.375C72.635 81.015 72.675 79.835 72.685 79.105C72.665 78.655 72.29 76.315 73.045 76.13Z" fill="#222221"/>
</g>
<path d="M68.775 83.27C68.385 84.365 69.115 85.425 69.775 86.205C70.03 86.505 70.805 87.355 71.135 86.92C71.1608 86.9247 71.1873 86.9196 71.2095 86.9058C71.2317 86.8919 71.248 86.8702 71.255 86.845C71.3549 86.4061 71.3038 85.9463 71.11 85.54C70.855 84.85 70.61 84.135 70.285 83.465C69.96 82.795 69.125 82.31 68.775 83.27Z" fill="#AEC6CF"/>
<g style="mix-blend-mode:multiply" opacity="0.2">
<path d="M68.775 83.27C68.385 84.365 69.115 85.425 69.775 86.205C70.03 86.505 70.805 87.355 71.135 86.92C71.1608 86.9247 71.1873 86.9196 71.2095 86.9058C71.2317 86.8919 71.248 86.8702 71.255 86.845C71.3549 86.4061 71.3038 85.9463 71.11 85.54C70.855 84.85 70.61 84.135 70.285 83.465C69.96 82.795 69.125 82.31 68.775 83.27Z" fill="#222221"/>
</g>
<path d="M81.855 94.83C81.4536 96.4511 80.5184 97.8899 79.2 98.915C79.2641 100.602 79.1265 102.291 78.79 103.945C78.59 104.09 78.405 104.25 78.225 104.41C78.315 103.98 78.39 103.555 78.455 103.12C78.4567 103.107 78.4567 103.093 78.455 103.08C75.75 101.655 74.54 98.9 73.525 96.115C73.605 96.115 77.805 97.875 78.58 102.375C78.8176 100.244 78.7621 98.0908 78.415 95.975C77.275 92.645 74.415 90.27 71.645 88.08C71.1421 87.7465 70.7174 87.3082 70.4 86.795C70.3792 86.7603 70.3625 86.7234 70.35 86.685C70.24 86.42 70.105 85.845 70.46 85.685C70.815 85.525 71.1 85.97 71.275 86.215C71.3029 86.2514 71.3279 86.2898 71.35 86.33C71.85 87.02 72.295 87.745 72.735 88.465C73.7814 89.2466 74.7691 90.1039 75.69 91.03C76.6449 91.992 77.449 93.0927 78.075 94.295C78.03 94.115 77.995 93.935 77.95 93.75C77.2534 91.1884 76.2459 88.7218 74.95 86.405C74.3715 85.4115 73.8701 84.3751 73.45 83.305C73.1538 82.5507 72.993 81.7501 72.975 80.94C72.9813 80.7446 73.015 80.5511 73.075 80.365C73.21 79.95 73.575 79.76 73.86 80.175C73.9618 80.3452 74.0217 80.5371 74.035 80.735C74.075 81.12 74.035 81.55 74.035 81.835C74.08 82.57 74.115 83.31 74.14 84.05C74.38 84.55 74.64 85.005 74.91 85.475C76.41 87.9388 77.5863 90.5856 78.41 93.35C78.7371 94.5437 78.9728 95.7605 79.115 96.99C79.2222 96.0216 79.4078 95.0634 79.67 94.125C80.055 92.73 81.695 90.3 81.71 90.29C82.1532 91.7648 82.2032 93.3299 81.855 94.83Z" fill="#455A64"/>
<g style="mix-blend-mode:multiply" opacity="0.1">
<path d="M63.15 115.55C63.5018 113.706 64.4255 112.019 65.79 110.73C66.797 109.742 67.9855 108.957 69.29 108.42L69.94 108.15L70.63 107.945C71.5584 107.688 72.5257 107.602 73.485 107.69L74.2 107.79C74.435 107.825 74.665 107.905 74.895 107.96L75.24 108.055L75.575 108.18C75.79 108.27 76.02 108.345 76.23 108.455C77.915 109.263 79.3543 110.506 80.4 112.055C79.1246 110.789 77.6125 109.787 75.95 109.105C74.3328 108.46 72.5492 108.36 70.87 108.82C69.1717 109.292 67.5934 110.121 66.24 111.25C64.8711 112.407 63.8096 113.884 63.15 115.55Z" fill="#222221"/>
<path d="M88.82 102.945C87.534 102.757 86.2318 102.705 84.935 102.79C83.6713 102.867 82.4269 103.136 81.245 103.59C80.0734 104.06 78.9962 104.738 78.065 105.59C77.1253 106.488 76.2961 107.495 75.595 108.59C75.9922 107.296 76.6623 106.103 77.56 105.09C78.0197 104.581 78.5345 104.125 79.095 103.73C79.6663 103.347 80.2743 103.022 80.91 102.76C83.4747 101.809 86.3066 101.881 88.82 102.96V102.945Z" fill="#222221"/>
<path d="M58.5 109.035C59.081 108.609 59.7572 108.331 60.47 108.225C61.1972 108.098 61.9433 108.134 62.655 108.33C63.3712 108.519 64.0315 108.877 64.58 109.375C64.8538 109.613 65.0973 109.883 65.305 110.18C65.5006 110.475 65.668 110.788 65.805 111.115C65.5 110.915 65.255 110.68 64.975 110.49C64.7098 110.294 64.4344 110.112 64.15 109.945C63.606 109.618 63.0185 109.368 62.405 109.205C61.7869 109.037 61.1505 108.944 60.51 108.93C59.8384 108.919 59.1668 108.954 58.5 109.035Z" fill="#222221"/>
</g>
<g style="mix-blend-mode:multiply" opacity="0.1">
<path d="M89.295 125.54C90.337 124.899 91.4878 124.455 92.69 124.23C93.9051 123.989 95.151 123.945 96.38 124.1C96.9932 124.186 97.5997 124.315 98.195 124.485C98.7837 124.68 99.3555 124.923 99.905 125.21C100.991 125.776 101.961 126.541 102.765 127.465C101.761 126.839 100.706 126.3 99.61 125.855C99.0711 125.643 98.5201 125.463 97.96 125.315C97.402 125.175 96.8359 125.07 96.265 125C95.1143 124.852 93.9508 124.828 92.795 124.93C91.6135 125.036 90.4429 125.24 89.295 125.54Z" fill="#222221"/>
<path d="M98.53 132.5C99.2154 130.551 100.446 128.84 102.075 127.57C103.72 126.275 105.678 125.435 107.75 125.135C109.823 124.792 111.951 125.047 113.885 125.87C114.838 126.286 115.718 126.853 116.49 127.55C117.26 128.225 117.905 129.031 118.395 129.93C117.764 129.154 117.029 128.469 116.21 127.895C115.414 127.321 114.542 126.86 113.62 126.525C112.706 126.198 111.753 125.996 110.785 125.925C110.545 125.896 110.302 125.884 110.06 125.89H109.335C108.835 125.945 108.365 125.965 107.885 126.045L107.165 126.17C107.045 126.17 106.925 126.21 106.805 126.24L106.455 126.335L105.755 126.53C105.525 126.61 105.3 126.705 105.07 126.785C104.615 126.957 104.171 127.155 103.74 127.38C103.325 127.635 102.885 127.855 102.495 128.145C100.862 129.28 99.507 130.768 98.53 132.5Z" fill="#222221"/>
<path d="M118.395 129.92C117.764 129.144 117.029 128.459 116.21 127.885C115.415 127.311 114.543 126.851 113.62 126.52C112.709 126.19 111.757 125.986 110.79 125.915C110.548 125.886 110.304 125.874 110.06 125.88H109.335C108.835 125.935 108.365 125.945 107.885 126.03L107.165 126.155C107.045 126.155 106.925 126.195 106.805 126.225L106.455 126.325L105.75 126.52C105.525 126.59 105.3 126.69 105.07 126.775C104.678 126.914 104.297 127.081 103.93 127.275L103.74 127.365L103.285 127.625C103.013 127.778 102.75 127.945 102.495 128.125C100.861 129.263 99.5058 130.755 98.53 132.49C99.2137 130.542 100.445 128.832 102.075 127.565C102.364 127.323 102.668 127.099 102.985 126.895C103.185 126.77 103.39 126.645 103.595 126.53C104.889 125.826 106.294 125.353 107.75 125.13C109.823 124.782 111.952 125.036 113.885 125.86C114.836 126.277 115.714 126.844 116.485 127.54C117.257 128.214 117.904 129.02 118.395 129.92Z" fill="#222221"/>
</g>
<path d="M91.32 111.865C92.4285 112.792 93.5978 113.644 94.82 114.415C95.3921 114.827 95.9956 115.193 96.625 115.51C96.9749 115.677 97.368 115.731 97.75 115.665C97.9592 115.665 98.1606 115.586 98.315 115.445C98.3499 115.416 98.3759 115.378 98.39 115.335C99.04 114.925 99.35 114.15 99.655 113.43C100.267 111.995 100.73 110.5 101.035 108.97C101.145 108.415 101.375 107.7 101.215 107.13C101.11 106.785 100.925 106.72 100.715 106.495C100.215 105.97 100.28 105.415 99.95 104.81C99.8803 104.641 99.7657 104.494 99.6185 104.386C99.4712 104.277 99.2971 104.211 99.115 104.195C98.19 104.195 97.975 105.975 97.81 106.6C97.4641 107.894 97.23 109.216 97.11 110.55C96.9756 111.752 96.9488 112.963 97.03 114.17C96.148 112.148 94.9793 110.264 93.56 108.575C93.06 107.965 92.25 106.965 91.335 107.115C90.965 107.175 90.955 107.445 90.695 107.615C90.145 107.925 89.695 107.425 89.155 107.59C87.13 108.175 90.74 111.385 91.32 111.865Z" fill="#AEC6CF"/>
<g style="mix-blend-mode:multiply" opacity="0.3">
<path d="M91.32 111.865C92.4285 112.792 93.5978 113.644 94.82 114.415C95.3921 114.827 95.9956 115.193 96.625 115.51C96.9749 115.677 97.368 115.731 97.75 115.665C97.9592 115.665 98.1606 115.586 98.315 115.445C98.3499 115.416 98.3759 115.378 98.39 115.335C99.04 114.925 99.35 114.15 99.655 113.43C100.267 111.995 100.73 110.5 101.035 108.97C101.145 108.415 101.375 107.7 101.215 107.13C101.11 106.785 100.925 106.72 100.715 106.495C100.215 105.97 100.28 105.415 99.95 104.81C99.8803 104.641 99.7657 104.494 99.6185 104.386C99.4712 104.277 99.2971 104.211 99.115 104.195C98.19 104.195 97.975 105.975 97.81 106.6C97.4641 107.894 97.23 109.216 97.11 110.55C96.9756 111.752 96.9488 112.963 97.03 114.17C96.148 112.148 94.9793 110.264 93.56 108.575C93.06 107.965 92.25 106.965 91.335 107.115C90.965 107.175 90.955 107.445 90.695 107.615C90.145 107.925 89.695 107.425 89.155 107.59C87.13 108.175 90.74 111.385 91.32 111.865Z" fill="#222221"/>
</g>
<path d="M93.825 105.415C94.685 108.35 95.72 111.23 96.53 114.18C96.555 114.25 96.68 114.22 96.66 114.15C96.095 111.475 95.16 108.91 94.345 106.305C93.9078 105.021 93.6339 103.687 93.53 102.335C93.485 101.415 93.575 100.59 93.08 99.8C93.061 99.7656 93.0331 99.737 92.9992 99.717C92.9654 99.697 92.9268 99.6865 92.8875 99.6865C92.8482 99.6865 92.8096 99.697 92.7758 99.717C92.7419 99.737 92.714 99.7656 92.695 99.8C92.195 100.61 92.98 102.01 93.38 102.915C93.4414 103.761 93.5905 104.599 93.825 105.415Z" fill="#263238"/>
<path d="M99.185 106C99.715 108.65 99.455 111.385 99.305 114.06C99.305 114.073 99.3103 114.086 99.3197 114.095C99.329 114.105 99.3418 114.11 99.355 114.11C99.3683 114.11 99.381 114.105 99.3904 114.095C99.3997 114.086 99.405 114.073 99.405 114.06C99.995 110.56 99.84 106.56 98.54 103.23C98.425 102.935 97.64 101.1 97.11 101.57C96.83 101.825 97.255 102.39 97.39 102.57C97.8908 103.167 98.3597 103.789 98.795 104.435C98.97 105 99.09 105.5 99.185 106Z" fill="#263238"/>
<path d="M89.265 105.11C89.3012 106.339 89.5746 107.55 90.07 108.675C91.1241 111.057 92.6283 113.213 94.5 115.025C94.54 115.065 94.615 114.995 94.575 114.95C92.885 113.015 91.23 111.015 90.255 108.605C89.9964 107.981 89.7939 107.335 89.65 106.675C89.65 106.63 89.625 106.575 89.61 106.52C89.595 106.465 89.61 106.52 89.61 106.485C89.6456 105.744 89.7647 105.009 89.965 104.295C90.05 103.96 90.17 103.38 89.92 103.295C89.295 103.365 89.27 104.665 89.265 105.11Z" fill="#263238"/>
<path d="M89.03 113.625C91.4 115.545 94.455 116.585 97.03 118.2C97.615 118.57 98.185 118.965 98.75 119.37C98.9205 119.509 99.0992 119.637 99.285 119.755C99.4009 119.826 99.5344 119.862 99.67 119.86C99.7278 119.864 99.7858 119.856 99.84 119.835C99.9367 119.798 100.023 119.739 100.093 119.663C100.162 119.587 100.213 119.495 100.24 119.395C100.366 118.982 100.424 118.551 100.41 118.12C100.53 117.675 100.685 117.235 100.8 116.845C100.967 116.268 101.147 115.698 101.34 115.135C101.755 113.93 102.28 112.78 102.805 111.635C103.29 110.667 103.627 109.633 103.805 108.565C103.88 107.995 103.99 106.925 103.555 106.465C103.12 106.005 102.78 106.3 102.555 106.685C102.33 107.07 102.24 107.505 102.055 107.88C101.745 108.455 101.375 108.45 100.905 108.76C100.619 108.987 100.384 109.273 100.217 109.598C100.05 109.923 99.9537 110.28 99.935 110.645C99.865 111.225 99.83 111.815 99.805 112.4C99.725 111.85 99.625 111.31 99.515 110.775C99.32 109.815 99.17 108.63 98.625 107.775C98.454 107.497 98.2213 107.263 97.945 107.09C97.34 106.795 96.8228 106.347 96.445 105.79C96.07 105.195 95.64 104.165 94.805 104.145C93.97 104.125 93.91 104.96 93.75 105.56C93.45 106.675 92.415 107.125 92.41 108.395C92.41 109.43 92.95 110.42 93.435 111.3C93.8135 111.994 94.2378 112.662 94.705 113.3C94.0323 112.713 93.284 112.218 92.48 111.83C92.141 111.629 91.7543 111.522 91.36 111.52C90.785 111.57 90.69 111.915 90.01 111.71C89.51 111.56 88.43 110.975 88.01 111.66C87.59 112.345 88.565 113.245 89.03 113.625Z" fill="#AEC6CF"/>
<g style="mix-blend-mode:multiply" opacity="0.1">
<path d="M89.03 113.625C91.4 115.545 94.455 116.585 97.03 118.2C97.615 118.57 98.185 118.965 98.75 119.37C98.9205 119.509 99.0992 119.637 99.285 119.755C99.4009 119.826 99.5344 119.862 99.67 119.86C99.7278 119.864 99.7858 119.856 99.84 119.835C99.9367 119.798 100.023 119.739 100.093 119.663C100.162 119.587 100.213 119.495 100.24 119.395C100.366 118.982 100.424 118.551 100.41 118.12C100.53 117.675 100.685 117.235 100.8 116.845C100.967 116.268 101.147 115.698 101.34 115.135C101.755 113.93 102.28 112.78 102.805 111.635C103.29 110.667 103.627 109.633 103.805 108.565C103.88 107.995 103.99 106.925 103.555 106.465C103.12 106.005 102.78 106.3 102.555 106.685C102.33 107.07 102.24 107.505 102.055 107.88C101.745 108.455 101.375 108.45 100.905 108.76C100.619 108.987 100.384 109.273 100.217 109.598C100.05 109.923 99.9537 110.28 99.935 110.645C99.865 111.225 99.83 111.815 99.805 112.4C99.725 111.85 99.625 111.31 99.515 110.775C99.32 109.815 99.17 108.63 98.625 107.775C98.454 107.497 98.2213 107.263 97.945 107.09C97.34 106.795 96.8228 106.347 96.445 105.79C96.07 105.195 95.64 104.165 94.805 104.145C93.97 104.125 93.91 104.96 93.75 105.56C93.45 106.675 92.415 107.125 92.41 108.395C92.41 109.43 92.95 110.42 93.435 111.3C93.8135 111.994 94.2378 112.662 94.705 113.3C94.0323 112.713 93.284 112.218 92.48 111.83C92.141 111.629 91.7543 111.522 91.36 111.52C90.785 111.57 90.69 111.915 90.01 111.71C89.51 111.56 88.43 110.975 88.01 111.66C87.59 112.345 88.565 113.245 89.03 113.625Z" fill="#222221"/>
</g>
<path d="M101.89 111.405C101.89 111.405 101.89 111.44 101.89 111.435C101.89 111.43 101.87 111.395 101.89 111.405Z" fill="#F1D1C5"/>
<path d="M91.205 113.905C93.5 116 98.06 116.5 99.3 119.615V119.755C99.4159 119.826 99.5493 119.862 99.685 119.86C100.25 118.95 100.255 117.825 100.405 116.77C100.594 115.169 100.986 113.598 101.57 112.095C101.57 112.055 101.53 112.03 101.505 112.07C100.935 113.207 100.529 114.419 100.3 115.67C100.045 116.925 100.12 118.53 99.53 119.71C99.5276 119.667 99.5276 119.623 99.53 119.58C99.79 118.14 99.46 116.58 99.1 115.215C98.635 113.43 97.94 111.715 97.32 109.99C97.32 109.92 97.195 109.99 97.215 110.04C97.715 111.725 98.27 113.41 98.715 115.11C99.0212 116.148 99.2288 117.213 99.335 118.29C98.465 114.715 94.925 112.11 94.335 108.43C94.3309 108.415 94.3221 108.402 94.3099 108.393C94.2977 108.384 94.2828 108.379 94.2675 108.379C94.2522 108.379 94.2373 108.384 94.2251 108.393C94.2129 108.402 94.2041 108.415 94.2 108.43C94.78 112.335 98.36 115.08 99.2 118.855C99.0161 118.525 98.7854 118.224 98.515 117.96C97.9961 117.225 97.3709 116.571 96.66 116.02C95.5 115.12 94.16 114.55 93.055 113.57C93.015 113.53 92.955 113.57 92.99 113.64C93.795 114.64 94.99 115.14 96.015 115.85C96.636 116.272 97.2094 116.759 97.725 117.305C97.3929 117.07 97.0473 116.855 96.69 116.66C94.9 115.66 92.975 114.98 91.275 113.785C91.2671 113.78 91.2584 113.777 91.2494 113.776C91.2403 113.775 91.2311 113.776 91.2223 113.778C91.2045 113.783 91.1893 113.794 91.18 113.81C91.1707 113.826 91.1681 113.845 91.1728 113.863C91.1775 113.88 91.1891 113.896 91.205 113.905Z" fill="white"/>
<path d="M102.42 109.435C102.422 109.84 102.326 110.24 102.14 110.6C102.14 110.63 102.075 110.6 102.085 110.6C102.201 110.23 102.275 109.847 102.305 109.46C102.315 109.375 102.415 109.365 102.42 109.435Z" fill="white"/>
<path d="M94.31 107.17C94.31 107.39 94.275 107.615 94.275 107.84C94.275 107.91 94.17 107.905 94.155 107.84C94.0931 107.613 94.1018 107.372 94.18 107.15C94.205 107.1 94.305 107.095 94.31 107.17Z" fill="white"/>
<path d="M90.335 112.925C90.4357 113.003 90.5309 113.089 90.62 113.18C90.6259 113.188 90.6294 113.197 90.6301 113.207C90.6308 113.217 90.6286 113.226 90.6238 113.235C90.619 113.243 90.6118 113.25 90.6032 113.255C90.5945 113.259 90.5847 113.261 90.575 113.26C90.4375 113.227 90.3177 113.143 90.24 113.025C90.19 112.965 90.275 112.87 90.335 112.925Z" fill="white"/>
<path d="M100.88 118.235C100.615 119.235 100.195 120.235 100.515 121.315C100.545 121.405 100.45 121.47 100.4 121.39C100 120.775 96.99 118.94 97.235 118.42C97.38 118.105 98.205 118.68 98.41 118.235C98.462 117.964 98.462 117.686 98.41 117.415C98.41 117.14 98.375 116.86 98.38 116.585C98.385 116.31 98.445 116.01 98.68 115.955C98.915 115.9 99.18 116.26 99.31 116.505C99.44 116.75 99.515 116.92 99.615 117.13C99.715 117.34 99.86 117.79 100.115 117.485C100.37 117.18 100.45 116.87 100.74 116.695C101.365 116.295 100.96 117.935 100.88 118.235Z" fill="#455A64"/>
<path d="M103.595 126.53C103.39 126.645 103.185 126.77 102.985 126.895L102.955 126.82C102.29 125.32 101.49 123.85 100.815 122.32C100.181 120.86 99.7385 119.324 99.5 117.75C100 120.545 101.825 123.11 103.11 125.59C103.29 125.89 103.45 126.21 103.595 126.53Z" fill="#455A64"/>
<path d="M102.635 125.89C102.635 125.89 102.235 121.6 102.93 119.39C103.625 117.18 106.05 114.205 106.05 114.205C106.626 116.277 106.612 118.47 106.009 120.534C105.405 122.599 104.237 124.454 102.635 125.89Z" fill="#455A64"/>
<path d="M164.39 193.535C165.31 193.84 191.485 193.765 192.48 193.13C192.855 192.895 193.07 189.08 193.195 184.465C193.222 183.465 193.243 182.442 193.26 181.395C193.26 180.155 193.295 178.895 193.3 177.685C193.335 172.22 193.26 167.405 193.26 167.405H176.215V177.685V181.395L176.305 184.465C176.305 184.465 166.305 188.965 165.275 189.79C164.245 190.615 163.5 193.235 164.39 193.535Z" fill="#F7A9A0"/>
<path d="M193.22 183.46C193.22 183.8 193.22 184.135 193.195 184.46C193.07 189.075 192.855 192.89 192.48 193.125C191.48 193.76 165.31 193.835 164.39 193.53C163.47 193.225 164.28 190.595 165.29 189.785C165.835 189.35 168.955 187.855 171.735 186.56C170.89 187.32 169.735 188.475 170.055 188.885C170.895 189.995 187.845 187.67 192.44 183.975C192.68 183.775 192.942 183.603 193.22 183.46Z" fill="#263238"/>
<path d="M198.94 94.79C198.94 94.79 194.335 140.34 194.23 140.915C194.23 140.99 194.18 141.87 194.135 143.295C193.885 151.14 193.275 175.59 193.275 175.59H174.5C174.5 175.59 175.725 146.63 176.43 139.875C177.325 131.255 182.98 94.79 182.98 94.79H198.94Z" fill="#37474F"/>
<path d="M192 142.5C192.58 132.63 193.452 122.783 194.615 112.96C195.275 107.43 196.07 101.915 196.86 96.395C196.86 96.35 196.94 96.35 196.935 96.395C195.48 106.215 194.435 116.11 193.565 125.995C192.695 135.88 192.065 145.765 191.655 155.665C191.425 161.28 191.25 166.895 191.07 172.505C191.07 172.533 191.059 172.56 191.039 172.579C191.02 172.599 190.993 172.61 190.965 172.61C190.937 172.61 190.91 172.599 190.891 172.579C190.871 172.56 190.86 172.533 190.86 172.505C191.11 162.5 191.4 152.5 192 142.5Z" fill="#263238"/>
<path d="M175.67 172.56C176.17 172.495 181.88 172.41 184.075 172.41C185.95 172.41 191.835 172.56 192.48 172.555C192.53 172.555 192.525 172.605 192.48 172.615C191.71 172.735 188.36 172.825 184.765 172.825C182.575 172.825 175.955 172.67 175.67 172.635C175.662 172.632 175.656 172.627 175.651 172.62C175.646 172.614 175.644 172.606 175.644 172.598C175.644 172.589 175.646 172.581 175.651 172.575C175.656 172.568 175.662 172.563 175.67 172.56Z" fill="#263238"/>
<path d="M198.94 94.79C198.94 94.79 194.335 140.34 194.23 140.915C194.23 140.99 194.18 141.87 194.135 143.295L185.275 94.795L198.94 94.79Z" fill="#263238"/>
<path d="M200.1 193.71C201.065 193.765 226.325 186.905 227.1 186.035C227.405 185.705 226.6 181.97 225.545 177.48C225.315 176.51 225.11 175.48 224.81 174.48C224.435 173.225 224.045 171.98 223.65 170.765C221.965 165.53 220.34 161.195 220.34 161.195L204.34 165.49L207.19 174.99L208.355 178.89L209.235 181.835C209.235 181.835 200.735 188.785 199.965 189.835C199.195 190.885 199.14 193.65 200.1 193.71Z" fill="#F7A9A0"/>
<path d="M227.12 186.035C226.325 186.905 201.065 193.765 200.095 193.71C199.125 193.655 199.23 190.9 199.995 189.855C200.465 189.22 203.77 186.41 206.3 184.305C205.57 185.165 204.43 186.63 204.8 187.015C205.77 187.97 221.505 183.515 225.97 179.27C226.83 182.925 227.38 185.75 227.12 186.035Z" fill="#263238"/>
<path d="M182.965 94.79C182.965 94.79 184.205 101.365 188.795 104.715C188.795 104.715 195.26 140.26 196.075 144.28C197.655 152.095 204.31 174.4 204.31 174.4L223.5 168.54C223.5 168.54 215.22 141.62 214.11 138.795C213.505 137.255 208.865 107.795 208.96 107.1C210.09 98.685 206.095 94.745 206.095 94.745L182.965 94.79Z" fill="#37474F"/>
<path d="M198.18 96.255C198.562 97.5782 199.371 98.7382 200.48 99.555C201.704 100.425 203.154 100.922 204.655 100.985C204.905 100.985 204.925 101.39 204.655 101.39C201.595 101.39 198.495 99.45 198.05 96.275C198.045 96.2 198.16 96.185 198.18 96.255Z" fill="#263238"/>
<path d="M185.855 102.63C186.966 103.077 188.027 103.64 189.02 104.31C190.07 104.96 191.02 105.72 192.06 106.425C192.066 106.431 192.069 106.439 192.07 106.448C192.07 106.456 192.068 106.465 192.064 106.472C192.059 106.479 192.053 106.485 192.045 106.488C192.037 106.491 192.028 106.492 192.02 106.49C190.96 105.88 189.85 105.345 188.795 104.715C187.737 104.14 186.733 103.47 185.795 102.715C185.775 102.68 185.81 102.615 185.855 102.63Z" fill="#263238"/>
<path d="M185.425 96.245C185.59 96.945 185.79 97.635 185.975 98.335C186.16 99.035 186.285 99.655 186.475 100.3C186.647 100.926 186.994 101.489 187.475 101.925C187.745 102.15 188.04 102.35 188.325 102.56L188.825 102.89C188.825 102.8 188.78 102.705 188.755 102.61C188.695 102.345 188.64 102.075 188.58 101.81C188.455 101.22 188.33 100.625 188.215 100.03C187.98 98.865 187.76 97.685 187.465 96.53C187.465 96.5207 187.469 96.5118 187.475 96.5053C187.482 96.4987 187.491 96.495 187.5 96.495C187.509 96.495 187.518 96.4987 187.525 96.5053C187.531 96.5118 187.535 96.5207 187.535 96.53C187.88 97.67 188.255 98.795 188.565 99.945C188.715 100.505 189.29 103.3 189.32 103.5C189.35 103.7 189.375 103.91 189.39 104.115C189.427 104.323 189.437 104.535 189.42 104.745C189.42 104.8 189.35 104.795 189.325 104.745C189.231 104.555 189.163 104.353 189.12 104.145C189.06 103.945 189.005 103.745 188.96 103.54L188.915 103.32C188.63 103.16 188.36 102.95 188.095 102.775C187.83 102.6 187.515 102.4 187.24 102.19C186.733 101.8 186.355 101.267 186.155 100.66C185.956 100.007 185.814 99.3377 185.73 98.66C185.605 97.865 185.505 97.065 185.355 96.275C185.345 96.215 185.415 96.195 185.425 96.245Z" fill="#263238"/>
<path d="M204.965 170.37C205.42 170.165 210.865 168.42 212.965 167.78C214.765 167.235 220.435 165.66 221.05 165.47C221.095 165.47 221.11 165.505 221.05 165.525C220.35 165.865 217.175 166.925 213.735 167.97C211.635 168.61 205.26 170.395 204.975 170.445C204.967 170.443 204.959 170.439 204.954 170.433C204.948 170.427 204.944 170.419 204.943 170.411C204.942 170.403 204.944 170.394 204.948 170.387C204.951 170.38 204.958 170.374 204.965 170.37Z" fill="#263238"/>
<path d="M215.345 150.59C214.585 148.38 213.815 146.175 213.07 143.96C212.334 141.786 211.741 139.566 211.295 137.315C210.38 132.725 209.59 128.1 208.845 123.475C208.472 121.142 208.117 118.795 207.78 116.435C207.62 115.275 207.462 114.108 207.305 112.935C207.155 111.805 206.97 110.68 206.91 109.54C206.68 105.33 208.18 100.88 206.35 96.86C206.145 96.4117 205.894 95.986 205.6 95.59C205.575 95.555 205.515 95.59 205.54 95.63C207.98 99.445 206.64 104.08 206.57 108.285C206.615 110.589 206.841 112.886 207.245 115.155C207.578 117.455 207.923 119.752 208.28 122.045C208.99 126.648 209.773 131.242 210.63 135.825C211.004 138.079 211.515 140.308 212.16 142.5C212.855 144.71 213.66 146.89 214.41 149.08C215.95 153.505 219.91 164.58 220.105 165.14C220.105 165.185 220.2 165.165 220.18 165.115C218.68 160.675 216.875 155.04 215.345 150.59Z" fill="#263238"/>
<path d="M190.71 70.36C186.31 75.005 175.625 80.17 172.1 80.17C168.1 80.17 161.33 74.595 156.25 69.895C155.135 68.865 162.005 58.755 163.25 59.815C166.325 62.47 173.525 69.72 174.64 69.895C176.27 70.15 182.84 68.395 188.045 66.925C193.815 65.28 192.945 68 190.71 70.36Z" fill="#F7A9A0"/>
<path d="M159.845 70.9C161.28 70.9 164.95 62.19 164.225 60.9C163.941 60.4946 163.604 60.1282 163.225 59.81C162.34 57.9719 161.727 56.0147 161.405 54C161.1 51.58 160.93 47.955 159.62 48.07C157.715 48.23 157.385 52.845 157.355 55.505C156.105 54.78 154.96 54.275 154.185 54.225C151.61 54.06 149.415 65.46 151.355 67.225C153.295 68.99 158.41 70.905 159.845 70.9Z" fill="#F7A9A0"/>
<path d="M148.545 69.405C148.545 69.405 151.39 69.905 152.79 68.44C157.16 63.87 152.205 49.595 149.79 50.175C147.375 50.755 145.045 59.79 145.045 59.79L148.545 69.405ZM148.655 68.01L145.93 60.51C145.93 60.51 147.86 52.645 149.735 52.195C151.61 51.745 155.36 63.695 151.955 67.25C150.865 68.405 148.655 68 148.655 68V68.01Z" fill="#37474F"/>
<path d="M124.76 62.295L125.635 66.73L121.845 68.935L124.76 62.295Z" fill="#455A64"/>
<path d="M139.135 79.8L154 73.22L141.835 52.29L132.335 56.595L139.135 79.8Z" fill="#455A64"/>
<path d="M141.835 52.29L142.645 50.01L130.4 55.28L132.335 56.595L141.835 52.29Z" fill="#37474F"/>
<path d="M135.745 68.225L137.34 73.675L124.705 67.26L125.44 65.715L135.745 68.225Z" fill="#37474F"/>
<path d="M123.5 64.315C122.105 62.965 119.085 62.85 119.07 64.13C119.07 64.835 120.15 65.035 121.47 64.535C122.117 64.2921 122.816 64.2164 123.5 64.315Z" fill="#EBEBEB"/>
<path d="M121.44 68.855C120.32 69.355 119.52 71.06 120.255 71.355C120.665 71.53 121.045 70.95 121.075 70.065C121.094 69.6376 121.22 69.2218 121.44 68.855Z" fill="#EBEBEB"/>
<path d="M121.87 66.5C121.138 66.355 120.384 66.3632 119.655 66.5241C118.926 66.685 118.238 66.9952 117.635 67.435C116.06 68.575 115.135 70.935 116.635 71.52C117.215 71.765 118.035 71.27 118.67 70.34C119.635 68.905 120.185 67.06 121.87 66.5Z" fill="#EBEBEB"/>
<path d="M158.095 55.26C158.48 56.545 156.745 56.26 156.745 56.26C156.745 56.26 159.14 57.26 159.02 58.76C158.9 60.26 156.82 59.76 156.67 59.76C156.8 59.815 158.975 60.805 158.705 62.26C158.435 63.715 156.4 63.01 156.27 62.96C156.375 63.05 157.715 64.25 157.27 65.32C156.475 67.16 152.96 64.185 151.35 64.39C151.35 64.39 151.385 67.155 151.35 67.235C151.35 67.235 147.95 64.475 147.795 62.285C147.77 61.9647 147.856 61.6456 148.038 61.3808C148.22 61.116 148.487 60.9216 148.795 60.83C148.795 60.83 147.6 60.065 147.795 58.895C147.885 58.3 148.925 57.895 148.925 57.895C148.664 57.7069 148.46 57.4508 148.335 57.1545C148.209 56.8582 148.168 56.5332 148.215 56.215C148.39 55.395 149.41 55.135 149.41 55.135C149.41 55.135 148.805 54.09 149.255 53.31C150.13 51.735 157.28 52.5 158.095 55.26Z" fill="#F7A9A0"/>
<path d="M149.525 55.07C149.525 55.07 149.5 55.035 149.525 55.035C152.032 54.6925 154.583 55.1216 156.84 56.265C156.91 56.305 156.88 56.435 156.795 56.41C154.45 55.6126 152.001 55.1612 149.525 55.07Z" fill="#263238"/>
<path d="M148.855 57.875C148.855 57.875 148.855 57.83 148.855 57.825C151.623 57.4767 154.423 58.1312 156.75 59.67C156.83 59.725 156.85 59.855 156.75 59.795C155.125 58.825 151.18 57.93 148.855 57.875Z" fill="#263238"/>
<path d="M156.395 63.11C154.105 61.61 151.57 61.03 148.895 60.79C148.86 60.79 148.865 60.74 148.895 60.735C150.245 60.495 151.945 60.825 153.245 61.195C154.458 61.5158 155.567 62.1484 156.46 63.03C156.5 63.065 156.445 63.14 156.395 63.11Z" fill="#263238"/>
<path d="M156.785 56.24C156.87 56.285 156.71 56.36 156.785 56.41C157.135 56.61 159.14 58.025 158.87 58.855C158.655 59.52 157.605 59.69 157.18 59.6L156.105 59.37L157.035 59.96C157.45 60.2179 157.82 60.5422 158.13 60.92C158.283 61.0866 158.399 61.2836 158.471 61.4981C158.542 61.7127 158.567 61.94 158.545 62.165C158.524 62.3748 158.431 62.5708 158.281 62.7195C158.132 62.8681 157.935 62.9602 157.725 62.98C157.255 63.0183 156.784 62.9356 156.355 62.74L155.15 62.24L156.12 63.1C156.39 63.3387 156.629 63.6109 156.83 63.91C157.032 64.1867 157.147 64.5175 157.16 64.86C157.161 65.0136 157.119 65.1644 157.039 65.2952C156.958 65.426 156.843 65.5316 156.705 65.6C156.373 65.7083 156.017 65.7187 155.68 65.63C154.948 65.4527 154.231 65.2187 153.535 64.93C153.18 64.795 152.82 64.66 152.455 64.54C152.096 64.4003 151.71 64.3406 151.325 64.365C151.705 64.384 152.077 64.4775 152.42 64.64C152.77 64.785 153.115 64.945 153.46 65.105C154.15 65.4519 154.872 65.7315 155.615 65.94C156.015 66.0603 156.441 66.0603 156.84 65.94C157.052 65.8518 157.233 65.7034 157.361 65.5132C157.489 65.3229 157.558 65.0993 157.56 64.87C157.554 64.446 157.422 64.0334 157.18 63.685C156.962 63.348 156.702 63.0404 156.405 62.77L156.17 63.13C156.674 63.3713 157.233 63.4748 157.79 63.43C158.097 63.3988 158.384 63.2608 158.6 63.04C158.805 62.8163 158.938 62.5356 158.98 62.235C159.011 61.9494 158.98 61.6604 158.89 61.3878C158.799 61.1151 158.651 60.8652 158.455 60.655C158.107 60.2444 157.695 59.8931 157.235 59.615L157.09 59.975C157.635 60.075 158.825 60.01 159.29 59.02C159.715 57.645 157.255 56.43 156.785 56.24Z" fill="#263238"/>
<path d="M156.745 56.26C157.021 56.252 157.294 56.2014 157.555 56.11C157.66 56.0759 157.755 56.0144 157.829 55.9318C157.902 55.8492 157.953 55.7485 157.975 55.64C157.986 55.3959 157.929 55.1535 157.81 54.94C157.685 54.695 157.545 54.44 157.39 54.2C157.652 54.3459 157.88 54.5452 158.06 54.785C158.272 55.0403 158.375 55.3693 158.345 55.7C158.308 55.8784 158.219 56.0419 158.09 56.17C157.961 56.2833 157.804 56.3593 157.635 56.39C157.332 56.4425 157.02 56.3969 156.745 56.26Z" fill="#263238"/>
<path d="M164.095 60.095L159.595 76.225C159.595 76.225 168.045 80.505 171.625 80.58C175.205 80.655 185.5 75.89 191.085 70.34C193.24 68.195 193.585 65.265 188.32 66.555C183.055 67.845 175.795 69.325 175.245 69.215C174.695 69.105 164.095 60.095 164.095 60.095Z" fill="#EBEBEB"/>
<path d="M166.64 62.785C166.235 63.915 165.94 65.095 165.64 66.25C165.34 67.405 165.01 68.57 164.71 69.75C164.12 72.08 163.59 74.43 163.08 76.78C163.083 76.7877 163.088 76.7943 163.095 76.7989C163.101 76.8036 163.109 76.8061 163.118 76.8061C163.126 76.8061 163.134 76.8036 163.14 76.7989C163.147 76.7943 163.152 76.7877 163.155 76.78C163.84 74.47 164.5 72.155 165.1 69.825C165.4 68.6617 165.685 67.495 165.955 66.325C166.225 65.155 166.535 63.98 166.72 62.795C166.721 62.7897 166.72 62.7844 166.719 62.7793C166.717 62.7742 166.715 62.7694 166.712 62.7652C166.709 62.7611 166.705 62.7576 166.7 62.755C166.695 62.7523 166.69 62.7507 166.685 62.75C166.68 62.7493 166.674 62.7497 166.669 62.7511C166.664 62.7525 166.659 62.7549 166.655 62.7582C166.651 62.7614 166.648 62.7655 166.645 62.7701C166.642 62.7747 166.641 62.7797 166.64 62.785Z" fill="#A6A6A6"/>
<path d="M183.33 84.915L182.155 97.13C182.155 97.13 202.77 96.415 207.655 95.83C207.655 95.83 201.715 73.395 196.155 67.92C193.375 65.185 190.285 65.55 188.41 67.65C187.91 68.18 182.355 76.35 181.875 79.39C181.47 82.075 183.33 84.915 183.33 84.915Z" fill="#AEC6CF"/>
<path d="M194.15 51.08C194.8 52.035 199.7 54.355 202.26 50.17C204.82 45.985 199.52 40.725 195.395 43.67C192.62 45.645 192.775 49.05 194.15 51.08Z" fill="#263238"/>
<path d="M193.765 67.16C193.63 67.565 191.405 70.08 189.515 69.82C188.9 69.73 189.22 66.355 189.22 66.355L189.19 66.1L188.725 62.53L193.07 60.27L193.695 59.975C193.695 59.975 193.76 60.975 193.825 62.185C193.825 62.245 193.825 62.3 193.825 62.36V62.56L193.855 63.115C193.855 63.26 193.855 63.395 193.855 63.545C193.855 63.695 193.855 63.84 193.855 63.99C193.898 65.0475 193.868 66.1067 193.765 67.16Z" fill="#F7A9A0"/>
<path d="M193.825 62.185C193.383 63.135 192.739 63.9773 191.939 64.6534C191.139 65.3295 190.201 65.8231 189.19 66.1L188.725 62.53L193.07 60.27L193.695 59.975C193.695 59.975 193.76 60.96 193.825 62.185Z" fill="#263238"/>
<path d="M184.5 56.5C183.36 62.71 186.95 64.095 188.29 64.34C189.505 64.56 193.67 65.16 195.45 59.105C197.23 53.05 194.7 50.55 191.95 49.895C189.2 49.24 185.615 50.3 184.5 56.5Z" fill="#F7A9A0"/>
<path d="M185.58 55.535C185.72 55.5305 185.861 55.5188 186 55.5C186.155 55.5054 186.308 55.4598 186.435 55.37C186.469 55.3344 186.49 55.2888 186.495 55.24C186.501 55.1913 186.49 55.1421 186.465 55.1C186.402 55.0235 186.319 54.9655 186.226 54.932C186.133 54.8986 186.032 54.891 185.935 54.91C185.731 54.9157 185.536 54.9978 185.39 55.14C185.36 55.1754 185.341 55.2187 185.335 55.2647C185.329 55.3106 185.337 55.3574 185.357 55.3991C185.377 55.4409 185.409 55.476 185.448 55.5001C185.488 55.5242 185.534 55.5363 185.58 55.535Z" fill="#263238"/>
<path d="M189.745 56.15C189.6 56.115 189.475 56.06 189.33 56.01C189.178 55.9827 189.039 55.9053 188.935 55.79C188.91 55.7476 188.899 55.6979 188.906 55.6489C188.912 55.6 188.935 55.5545 188.97 55.52C189.049 55.4598 189.142 55.4216 189.241 55.4093C189.339 55.397 189.439 55.411 189.53 55.45C189.726 55.502 189.895 55.625 190.005 55.795C190.029 55.8354 190.04 55.8817 190.037 55.9284C190.035 55.975 190.019 56.02 189.991 56.0577C189.964 56.0953 189.926 56.1242 189.882 56.1406C189.838 56.157 189.791 56.1602 189.745 56.15Z" fill="#263238"/>
<path d="M188.665 57.455C188.665 57.455 188.695 57.455 188.695 57.495C188.62 57.92 188.61 58.42 188.975 58.615C188.5 58.5 188.53 57.845 188.665 57.455Z" fill="#263238"/>
<path d="M189.105 57.06C189.8 57.105 189.665 58.485 189.025 58.445C188.385 58.405 188.525 57.025 189.105 57.06Z" fill="#263238"/>
<path d="M189.37 57.16C189.485 57.25 189.59 57.4 189.735 57.43C189.88 57.46 190.04 57.33 190.165 57.2C190.165 57.465 190.015 57.7 189.73 57.735C189.445 57.77 189.305 57.495 189.265 57.235C189.275 57.195 189.325 57.125 189.37 57.16Z" fill="#263238"/>
<path d="M186.3 57.065C186.3 57.065 186.265 57.065 186.265 57.1C186.265 57.53 186.14 58.02 185.765 58.1C186.22 58.125 186.345 57.5 186.3 57.065Z" fill="#263238"/>
<path d="M185.96 56.585C185.275 56.47 185.095 57.85 185.73 57.955C186.365 58.06 186.53 56.68 185.96 56.585Z" fill="#263238"/>
<path d="M185.66 56.64C185.54 56.695 185.415 56.815 185.285 56.81C185.155 56.805 185.04 56.635 184.965 56.48C184.965 56.48 184.965 56.48 184.94 56.48C184.9 56.74 184.94 57.025 185.195 57.11C185.45 57.195 185.62 56.98 185.695 56.725C185.735 56.695 185.705 56.615 185.66 56.64Z" fill="#263238"/>
<path d="M188.435 60.78C188.33 60.875 188.22 61.01 188.06 61.015C187.901 61.0041 187.746 60.9598 187.605 60.885C187.663 60.9722 187.743 61.0423 187.837 61.0881C187.931 61.1338 188.036 61.1535 188.14 61.145C188.228 61.1268 188.309 61.0829 188.372 61.0188C188.435 60.9548 188.478 60.8734 188.495 60.785C188.495 60.785 188.45 60.77 188.435 60.78Z" fill="#263238"/>
<path d="M186.815 59.045C186.815 59.045 186.66 59.67 186.625 59.975C186.625 59.975 186.695 60.025 186.795 60.04C187.048 60.1149 187.317 60.1185 187.572 60.0506C187.827 59.9827 188.058 59.8458 188.24 59.655C188.265 59.655 188.24 59.595 188.2 59.61C187.788 59.8303 187.317 59.9127 186.855 59.845C186.855 59.76 187.16 58.775 187.11 58.765C186.874 58.761 186.638 58.7896 186.41 58.85C186.7 57.53 187.2 56.265 187.47 54.95C187.47 54.9405 187.468 54.9312 187.463 54.9233C187.457 54.9155 187.45 54.9094 187.441 54.9061C187.432 54.9028 187.422 54.9023 187.413 54.9048C187.404 54.9073 187.396 54.9126 187.39 54.92C186.816 56.2565 186.375 57.6466 186.075 59.07C186.045 59.24 186.69 59.08 186.815 59.045Z" fill="#263238"/>
<path d="M186.845 59.81C186.971 60.0861 187.168 60.3242 187.415 60.5C187.551 60.5916 187.711 60.6387 187.875 60.635C188.235 60.635 188.315 60.315 188.315 60.03C188.31 59.8817 188.29 59.7342 188.255 59.59C187.82 59.8106 187.326 59.8877 186.845 59.81Z" fill="#263238"/>
<path d="M187.415 60.5C187.551 60.5916 187.711 60.6387 187.875 60.635C188.235 60.635 188.315 60.315 188.315 60.03C188.134 59.9959 187.947 60.0237 187.784 60.109C187.62 60.1942 187.49 60.332 187.415 60.5Z" fill="#FF9ABB"/>
<path d="M195.365 59.165C194.969 58.9537 194.635 58.6429 194.396 58.2633C194.156 57.8837 194.02 57.4483 194 57C192.925 56.485 192.007 55.6928 191.34 54.705C191.38 54.835 191.65 55.775 191.8 56.25C190.702 56.0469 189.669 55.5818 188.789 54.8942C187.909 54.2065 187.208 53.3166 186.745 52.3C185.962 52.9704 185.341 53.8098 184.93 54.755C184.93 54.755 185.005 52.34 186.29 50.755C190.615 45.37 195.37 51.13 195.37 51.13C195.37 51.13 196.965 52.035 197.18 53.63C197.6 56.805 195.365 59.165 195.365 59.165Z" fill="#263238"/>
<path d="M188.81 55.5C189.433 55.8695 190.107 56.1441 190.81 56.315C189.707 55.9755 188.721 55.3327 187.965 54.46C187.644 54.0871 187.37 53.6756 187.15 53.235C186.894 52.7714 186.732 52.2615 186.675 51.735C186.675 51.695 186.615 51.7 186.615 51.735C186.613 52.2708 186.701 52.8031 186.875 53.31C187.071 53.803 187.354 54.2568 187.71 54.65C188.032 54.9946 188.401 55.2925 188.805 55.535" fill="#263238"/>
<path d="M194.35 58.865C194.35 58.865 195.91 57.035 196.75 57.61C197.59 58.185 196.29 60.93 195.21 61.22C195.074 61.2663 194.929 61.2846 194.785 61.2737C194.642 61.2628 194.502 61.2231 194.374 61.1568C194.246 61.0905 194.133 60.999 194.041 60.8879C193.949 60.7767 193.881 60.6482 193.84 60.51L194.35 58.865Z" fill="#F7A9A0"/>
<path d="M196.36 58.385C196.36 58.385 196.36 58.385 196.36 58.415C196.008 58.5509 195.688 58.759 195.421 59.026C195.154 59.2929 194.946 59.6128 194.81 59.965C194.86 59.896 194.924 59.8384 194.998 59.7963C195.072 59.7542 195.154 59.7285 195.239 59.7209C195.324 59.7133 195.41 59.724 195.49 59.7524C195.57 59.7807 195.644 59.8259 195.705 59.885C195.705 59.885 195.705 59.93 195.68 59.925C195.555 59.8718 195.417 59.8586 195.285 59.8873C195.152 59.9159 195.032 59.985 194.94 60.085C194.786 60.2521 194.651 60.4367 194.54 60.635C194.5 60.695 194.385 60.635 194.415 60.575C194.5 59.625 195.345 58.385 196.36 58.385Z" fill="#263238"/>
<path d="M193.91 66.37C193.91 66.37 192.165 74.83 193.19 86.52C195.12 108.565 200.59 141.135 201.905 143.295C203.905 146.61 224.875 148.74 224.875 148.74C220.537 130.296 215.088 112.132 208.56 94.345C208.56 94.345 204.26 81.935 202.735 78.625C197 66.225 193.91 66.37 193.91 66.37Z" fill="#EBEBEB"/>
<path d="M213.55 112.425C211.626 113.017 209.667 113.491 207.685 113.845C204.91 114.295 202.105 114.47 201.31 114.585C201.235 114.585 201.24 114.835 201.31 114.835C202.365 114.8 205.605 114.605 207.725 114.265C209.663 113.932 211.569 113.43 213.42 112.765C213.505 113.355 213.575 113.815 213.67 114.4C211.775 115.095 208.1 116.36 201.865 116.56C201.81 116.315 201.63 115 201.52 114.65C201.52 114.595 201.275 114.625 201.28 114.71C201.28 115.07 201.65 118.24 201.75 118.88C201.995 120.46 202.815 124.88 203.345 125.7C204.55 127.51 208.345 126.9 209.41 126.74C210.475 126.58 213.875 126.135 214.95 124.69C215.52 123.915 215.085 120.28 214.45 117.105C214.16 115.605 213.645 112.44 213.55 112.425ZM209.63 126.31C206.265 126.855 204.69 126.39 204.06 125.77C203.32 125.05 203.06 123.63 202.74 122.065C202.505 120.835 201.925 116.955 201.905 116.875C205.937 116.942 209.945 116.242 213.715 114.81C214.02 116.645 214.26 118.11 214.56 119.95C214.775 121.28 215.06 123.52 214.5 124.405C214.04 125.145 212.06 125.915 209.63 126.31Z" fill="#A6A6A6"/>
<path d="M208.165 113.5C208.79 115.32 208.105 118.24 209.54 118.195C210.82 118.155 211.095 116.085 211.095 116.085C211.095 116.085 211.535 118.52 212.895 118.085C214.255 117.65 214.1 115.32 214.1 115.32C214.1 115.32 214.375 117.36 215.7 116.82C217.025 116.28 217.255 114.285 217.255 114.285C217.255 114.285 217.755 114.815 218.505 114.02C219.605 112.88 219.135 109.49 218.475 107.775C217.815 106.06 214.11 100.275 213.525 99.41L202.5 103.58C202.5 103.58 202.28 107.17 202.385 109.005C202.49 110.84 204.53 116.785 206.04 116.38C207.55 115.975 206.04 111.8 205.895 110.695C205.75 109.59 205.98 109.37 206.43 109.82C206.725 110.11 207.89 112.68 208.165 113.5Z" fill="#F7A9A0"/>
<path d="M211.06 116C211.245 113.09 210.82 111.785 209.445 109.27C209.42 109.22 209.485 109.17 209.52 109.215C211.09 111.56 211.855 113.12 211.2 116.015C211.17 116.13 211.05 116.11 211.06 116Z" fill="#263238"/>
<path d="M214.065 115.43C213.99 112.395 213.565 110.975 212.295 108.235C212.295 108.195 212.345 108.16 212.365 108.2C213.815 110.785 214.54 112.36 214.215 115.405C214.2 115.54 214.065 115.57 214.065 115.43Z" fill="#263238"/>
<path d="M217.23 114.255C216.95 111.32 216.525 109.755 214.975 107.255C214.969 107.249 214.965 107.242 214.962 107.235C214.96 107.227 214.959 107.219 214.96 107.211C214.961 107.203 214.963 107.195 214.967 107.188C214.972 107.181 214.977 107.175 214.984 107.171C214.991 107.166 214.998 107.163 215.006 107.162C215.014 107.161 215.022 107.162 215.03 107.164C215.038 107.166 215.045 107.17 215.051 107.176C215.057 107.181 215.062 107.188 215.065 107.195C216.895 109.595 217.435 111.56 217.32 114.255C217.31 114.42 217.25 114.44 217.23 114.255Z" fill="#263238"/>
<path d="M197.785 69.955C204.325 78.83 212.92 97.57 214.045 100.57C214.81 102.6 203.215 106.725 202.9 105.265C202.505 103.4 196.375 79.99 194.74 71.315C193.84 66.535 196.17 67.76 197.785 69.955Z" fill="#F7A9A0"/>
<path d="M200.5 102L214.07 98.605C214.07 98.605 201.645 74.44 198.215 69.935C194.715 65.355 194.085 67.935 194.715 72.845C195.43 78.145 200.5 102 200.5 102Z" fill="#EBEBEB"/>
<path d="M212.225 97.13C211.3 97.24 210.38 97.485 209.47 97.68C208.56 97.875 207.64 98.08 206.73 98.29C204.905 98.71 203.08 99.14 201.28 99.65C201.272 99.6528 201.266 99.658 201.261 99.6647C201.256 99.6714 201.254 99.6793 201.254 99.6875C201.254 99.6957 201.256 99.7036 201.261 99.7103C201.266 99.717 201.272 99.7222 201.28 99.725C203.125 99.405 204.955 98.995 206.78 98.575C207.675 98.37 208.565 98.155 209.455 97.94C210.345 97.725 211.33 97.53 212.23 97.225C212.24 97.2212 212.248 97.2144 212.254 97.2056C212.26 97.1967 212.263 97.1862 212.262 97.1757C212.261 97.1651 212.258 97.155 212.251 97.1468C212.244 97.1386 212.235 97.1327 212.225 97.13Z" fill="#A6A6A6"/>
<path d="M201.96 101.63C201.705 101.63 200.67 101.745 200.63 101.76C200.63 101.63 199.955 97.31 199.775 96.415C199.425 94.665 199.05 92.915 198.685 91.17C197.94 87.635 197.15 84.11 196.38 80.58C195.945 78.58 195.495 76.615 195.01 74.64C195.01 74.595 194.93 74.615 194.935 74.665C195.14 75.82 195.355 76.97 195.58 78.125C195.365 77.625 195.14 77.125 194.945 76.625C194.945 76.58 194.85 76.625 194.87 76.625C195.075 77.125 195.25 77.68 195.44 78.205C195.54 78.485 195.65 78.76 195.765 79.03C196.175 81.115 196.605 83.195 197.03 85.275C197.75 88.815 198.46 92.36 199.24 95.89C199.455 96.86 200.395 102.04 200.43 102.03C200.465 102.02 201.755 101.745 201.995 101.645C202 101.675 202 101.625 201.96 101.63Z" fill="#A6A6A6"/>
<path d="M189.075 67.03C189.075 67.03 185.35 71.94 184.255 87.395C183.07 104.07 180.54 140.2 180.345 141.48C180.15 142.76 174.93 145.75 174.93 145.75L182.965 84.97C182.965 84.97 181.465 81.97 181.735 79.765C182.065 76.825 187.635 67.685 189.075 67.03Z" fill="#EBEBEB"/>
<path d="M185.15 72.37C184.775 72.87 184.44 73.455 184.11 74.015L184.17 73.815C184.265 73.525 184.34 73.225 184.41 72.925C184.41 72.925 184.385 72.895 184.375 72.925C184.27 73.215 184.165 73.51 184.085 73.805L183.935 74.305C183.735 74.635 183.095 76.04 182.935 76.375C182.91 76.42 182.985 76.46 183.005 76.415C183.165 76.07 183.96 74.745 184.135 74.415C184.48 73.73 184.87 73.065 185.215 72.375L185.15 72.37Z" fill="#A6A6A6"/>
<path d="M189.075 67.03C187.845 68.6333 186.607 70.2317 185.36 71.825V71.695L186.325 72.56L186.4 72.63L186.33 72.71L184.33 74.98L184.36 74.905C184.36 76.985 184.36 79.07 184.36 81.15C184.36 83.23 184.31 85.315 184.255 87.395C184.195 85.315 184.165 83.23 184.145 81.15C184.125 79.07 184.12 76.985 184.145 74.905V74.86L184.17 74.825L186.17 72.57V72.715L185.225 71.835L185.16 71.775L185.215 71.705C186.492 70.135 187.778 68.5767 189.075 67.03Z" fill="#A6A6A6"/>
<path d="M193.9 66.355C194.567 68.275 195.223 70.2 195.87 72.13L195.905 72.23H195.8L193.93 72.595L194 72.5L195.06 75.115V75.15C194.795 77.15 194.49 79.2 194.2 81.22C193.91 83.24 193.585 85.265 193.245 87.285C193.475 85.2517 193.723 83.2217 193.99 81.195C194.265 79.165 194.53 77.14 194.83 75.115V75.175L193.79 72.555L193.74 72.43H193.87L195.745 72.085L195.67 72.21C195.08 70.25 194.5 68.3 193.9 66.355Z" fill="#A6A6A6"/>
<path d="M225.855 208.25H167.225V215.715H225.855V208.25Z" fill="#455A64"/>
<path d="M215.175 193.71H164.565V201.175H215.175V193.71Z" fill="#455A64"/>
<path d="M167.375 221.54H163.075L167.51 201.175H176.25L167.375 221.54Z" fill="#455A64"/>
<path d="M167.515 201.17H176.25L174.03 206.265H166.405L167.515 201.17Z" fill="#37474F"/>
<path d="M212.375 221.54H216.675L212.235 201.175H203.495L212.375 221.54Z" fill="#455A64"/>
<path d="M213.345 206.265H205.715L203.495 201.17H212.235L213.345 206.265Z" fill="#37474F"/>
</svg>
