<svg width="36" height="36" viewBox="0 0 36 36" fill="none" xmlns="http://www.w3.org/2000/svg">
<path d="M19.3333 16.3573V14.6667C19.3333 13.9594 19.6143 13.2811 20.1144 12.781C20.6145 12.281 21.2928 12 22 12H23C23.0884 12 23.1732 12.0351 23.2357 12.0976C23.2982 12.1601 23.3333 12.2449 23.3333 12.3333V13.3333C23.3333 14.0406 23.0524 14.7189 22.5523 15.219C22.0522 15.719 21.3739 16 20.6667 16C19.9594 16 19.2811 16.281 18.781 16.781C18.281 17.2811 18 17.9594 18 18.6667C18 20 18.6667 20.6667 18.6667 22C18.6667 22.7212 18.4327 23.423 18 24" stroke="#AEC6CF" stroke-width="2" stroke-linecap="round" stroke-linejoin="round"/>
<path d="M12.6667 16C13.1619 15.6286 13.7508 15.4024 14.3673 15.3468C14.9838 15.2912 15.6037 15.4084 16.1574 15.6853C16.7111 15.9621 17.1767 16.3877 17.5022 16.9142C17.8276 17.4408 18 18.0476 18 18.6667C17.5048 19.0381 16.9159 19.2643 16.2993 19.3199C15.6828 19.3755 15.063 19.2583 14.5093 18.9814C13.9556 18.7046 13.4899 18.279 13.1645 17.7524C12.839 17.2259 12.6667 16.6191 12.6667 16Z" stroke="#AEC6CF" stroke-width="2" stroke-linecap="round" stroke-linejoin="round"/>
<path d="M13.3333 24H22.6667" stroke="#AEC6CF" stroke-width="2" stroke-linecap="round" stroke-linejoin="round"/>
</svg>
